<svg width="786" height="546" fill="none" xmlns="http://www.w3.org/2000/svg"><path fill-rule="evenodd" clip-rule="evenodd" d="M698.538 398.935c-3.651 2.673-4.094 2.81-9.085 2.81-5.765 0-14.268 1.538-19.509 3.53l-3.368 1.28-.794-3.826c-.545-2.624-1.138-3.826-1.886-3.826-.777 0-.977.461-.694 1.599.219.879.589 2.877.822 4.439.419 2.811.384 2.865-3.232 4.973-7.975 4.65-16.911 16.538-19.878 26.446l-.9 3.005-2.808-2.539c-1.94-1.752-3.037-2.309-3.546-1.8-.509.508-.041 1.322 1.512 2.629 3.579 3.012 3.813 3.898 2.955 11.187-.738 6.259-.208 15.109 1.108 18.54.4 1.042.231 1.222-.851.902-4.103-1.213-6.677-1.325-6.677-.291 0 .713 1.313 1.311 4.084 1.858l4.084.807 3.076 6.025c4.274 8.368 10.917 15.299 21.345 22.269 4.539 3.034 9.847 5.977 11.801 6.543 3.184.923-3.27 1.066-62.324 1.384-43.207.233-65.875.6-65.875 1.066 0 .47 35.277.771 104.051.89 92.198.16 104.051.058 104.051-.888 0-.927-3.064-1.076-23.261-1.132l-23.26-.065 3.906-1.268c2.149-.697 6.083-2.306 8.745-3.575 4.88-2.326 6.731-2.483 11.77-.995 3.084.91 1.273-1.402-2.065-2.637-2.954-1.093-3.025-1.184-1.531-1.983 2.45-1.311 8.929-9.583 11.546-14.738 1.519-2.993 3.596-5.708 5.775-7.546 1.872-1.578 3.403-3.139 3.403-3.469 0-1.009-1.455-.671-3.555.825l-2 1.424 1.118-3.733c.821-2.743 1.157-7.401 1.267-17.584.083-7.619.39-14.891.684-16.161.576-2.492-.483-3.224-1.649-1.14-.518.926-.906.41-1.868-2.486-.755-2.274-1.623-3.655-2.297-3.655-.747 0-.931.387-.593 1.243 3.574 9.033 4.95 26.28 2.904 36.38-5.064 24.998-22.166 39.251-48.345 40.294-4.687.187-9.801.026-11.364-.358-2.37-.582-1.417-.709 5.763-.769 4.732-.039 10.324-.397 12.426-.796 8.691-1.648 17.715-7.639 23.252-15.437 1.818-2.56 5.063-6.628 7.211-9.042 2.149-2.412 4.775-5.984 5.836-7.936 7.409-13.628 4.54-31.544-7.312-45.662l-4.169-4.966.794-3.952c.436-2.173.608-4.135.383-4.361-.895-.895-1.866.636-2.319 3.657-.262 1.749-.591 3.18-.73 3.18-.14 0-1.732-1.039-3.539-2.309-3.206-2.253-3.276-2.382-2.876-5.327.318-2.34.181-3.02-.609-3.02-.594 0-1.206.994-1.466 2.38l-.446 2.38-4.271-1.725c-5.235-2.115-9.417-2.903-9.017-1.7.155.463 2.835 1.728 5.956 2.81 13.581 4.712 24.004 15.04 29.338 29.071 2.406 6.33 2.683 18.373.553 23.969-1.311 3.441-5.46 10.472-5.913 10.019-.124-.123.258-2.267.846-4.766.589-2.498 1.076-6.743 1.081-9.433.006-2.689.382-6.128.835-7.64.876-2.924.225-4.591-1.032-2.643-.614.951-1.044.299-2.344-3.552-1.378-4.082-1.489-5.17-.819-8.088.425-1.854.58-3.565.343-3.8-.724-.726-1.944.431-1.944 1.844 0 2.287-1.189 2.213-2.995-.185-1.108-1.473-2.161-4.464-2.922-8.306-1.135-5.734-2.074-7.905-3.013-6.968-.236.237.081 2.903.706 5.925s1.037 5.593.915 5.715c-.121.121-1.375-.134-2.785-.566-2.622-.805-5.217-.383-4.527.735.212.342 1.648.824 3.191 1.07 4.397.704 4.834 1.559 5.396 10.554.601 9.621.142 11.655-4.423 19.587-7.168 12.455-16.234 21.638-26.381 26.721-6.424 3.219-9.147 3.862-4.356 1.028 2.149-1.27 6.014-4.405 8.591-6.966 4.381-4.354 6.66-8.104 10.386-17.088.69-1.664.77-1.563 1.259 1.598.515 3.327 1.458 4.335 2.213 2.367.212-.555-.088-2.871-.668-5.148-1.016-3.993-.993-4.285.656-8.206.942-2.236 1.711-4.497 1.711-5.024 0-.528 1.119-2.266 2.486-3.864 1.368-1.598 2.486-3.254 2.486-3.68 0-1.278-1.464-.878-2.793.764-1.209 1.492-1.258 1.298-1.676-6.571-.238-4.461-.762-9.208-1.166-10.551-.555-1.845-.477-3.306.32-5.989.579-1.952 1.054-4.157 1.054-4.9 0-2.263-1.623-.966-2.441 1.952l-.77 2.745-.938-2.058c-.643-1.413-.697-2.137-.17-2.313.422-.141.767-.743.767-1.338 0-.677-.404-.927-1.079-.669-.698.268-2.331-.884-4.62-3.259-2.61-2.708-3.749-3.465-4.335-2.879-.585.585-.025 1.526 2.134 3.58 1.611 1.533 2.929 3.146 2.929 3.586 0 .439-2.477 2.458-5.505 4.486-6.843 4.585-17.396 15.067-21.454 21.312-2.581 3.97-3.522 4.846-5.986 5.567-1.607.471-3.67 1.333-4.583 1.916-.912.584-1.831.889-2.042.679-.512-.513 5.309-12.203 6.619-13.291.786-.653 1.457-.662 2.82-.042.983.449 2.252.815 2.82.815 1.814 0 1.105-1.516-1.099-2.348-1.172-.443-2.131-1.126-2.131-1.518 0-1.413 8.372-8.642 12.648-10.922 2.404-1.281 6.485-2.771 9.071-3.313 2.586-.541 4.868-1.151 5.072-1.354.203-.203-.691-1.71-1.989-3.348-4.592-5.799-14.366-8.332-23.308-6.041-13.539 3.469-24.105 14.713-30.195 32.135a505.331 505.331 0 01-3.17 8.785c-1.061 2.832-1.476 5.668-1.509 10.301-.051 7.315-.813 6.952-2.137-1.019-1.609-9.683.538-21.802 5.792-32.685 3.982-8.251 12.029-16.439 19.782-20.129 8.141-3.875 12.647-4.859 24.148-5.276 9.259-.334 14.688.06 22.55 1.638 1.782.358 2.309.221 2.309-.598 0-1.084-3.806-2.069-12.007-3.105l-3.839-.486 2.247-1.847c2.058-1.692 2.995-3.668 1.702-3.592-.293.018-2.26 1.296-4.371 2.842zm-5.534 15.848c1.436.6 3.467 1.946 4.511 2.992l1.901 1.9-5.188 1.645c-2.853.905-6.763 2.625-8.689 3.822-2.782 1.731-3.429 1.922-3.15.934 1.193-4.238 1.252-5.862.215-5.862-.934 0-2.527 4.865-2.627 8.027-.015.469-1.59 2.528-3.5 4.576-3.432 3.678-3.512 3.717-6.746 3.274-1.892-.259-3.176-.781-3.042-1.237.126-.433 2.091-1.695 4.365-2.804 2.97-1.449 3.918-2.234 3.366-2.787-.553-.553-1.289-.533-2.611.069-2.179.993-1.997.551 1.608-3.904 1.557-1.923 2.117-3.127 1.604-3.444-1.166-.721-3.224 1.443-7.529 7.914-2.908 4.37-4.322 5.875-5.789 6.156-1.068.206-2.064.252-2.213.105-.15-.147 1.021-2.332 2.602-4.853 2.649-4.226 2.974-5.409 1.486-5.409-.311 0-2.208 2.691-4.216 5.978-3.804 6.227-9.877 12.316-8.835 8.859 2.103-6.974 10.187-17.719 16.456-21.871 2.909-1.928 3.929-2.2 8.23-2.2 3.553 0 4.829-.241 4.619-.868-.159-.479-1.064-1.071-2.012-1.318-1.674-.435-1.662-.459.408-.845 3.563-.664 12.007-.006 14.776 1.151zm16.415 10.463c1.077 2.691 1.075 3.173-.028 6.673l-1.19 3.774-2.202-1.344c-4.785-2.918-10.37-.53-10.37 4.435 0 2.761 2.396 5.583 4.74 5.583 2.235 0 2.085-1.137-.301-2.275-3.798-1.812-2.416-6.96 1.87-6.96 1.79 0 5.073 2.216 5.041 3.402-.04 1.531-5.426 13.611-6.023 13.511-.391-.064-1.904-.586-3.362-1.16-2.214-.869-2.585-1.304-2.25-2.636.58-2.311-1.001-2.907-1.842-.695-.639 1.682-.949 1.808-3.372 1.369-1.468-.265-2.765-.563-2.884-.662-.118-.099 1.609-2.15 3.837-4.557 2.735-2.955 3.818-4.611 3.332-5.097-.485-.486-2.309.998-5.612 4.567-3.511 3.794-5.563 5.432-7.264 5.797-2.312.496-2.349.467-1.496-1.159 1.615-3.078 7.736-10.361 12.121-14.422 4.866-4.505 13.876-11.044 15.218-11.044.482 0 1.399 1.304 2.037 2.9zm3.101 19.476c.007 4.298-.243 8.613-.555 9.59-.394 1.232-.591.048-.64-3.864-.039-3.102-.426-7.418-.86-9.59-.611-3.058-.586-4.431.114-6.081l.902-2.131.513 2.131c.282 1.172.519 5.647.526 9.945zm-50.273-6.571c0 .098-1.11 3.282-2.466 7.077-3.589 10.045-4.374 17.447-2.907 27.448.643 4.389 1.783 9.949 2.532 12.358.75 2.41 1.251 4.493 1.113 4.63-.464.465-4.687-7.495-6.192-11.671-2.333-6.474-2.652-19.489-.667-27.151 1.957-7.548 3.538-10.834 5.746-11.95 1.665-.841 2.841-1.148 2.841-.741zm8.699.235c.228.228-.836 2.731-2.364 5.563-1.528 2.833-3.412 6.995-4.188 9.249-.775 2.255-2.059 5.151-2.854 6.438-.795 1.285-1.925 3.571-2.511 5.078-1.056 2.715-1.062 2.689-.695-2.973.41-6.326 2.271-13.805 4.931-19.821 1.686-3.812 1.839-3.946 4.507-3.946 1.519 0 2.947.186 3.174.412zm57.739 3.439c.964 1.473.997 2.149.233 4.703-.719 2.398-.996 2.723-1.416 1.654-.582-1.481-.814-8.077-.283-8.077.186 0 .846.774 1.466 1.72zm-76.221 5.206c-1.581 4.78-1.828 6.792-1.878 15.271-.032 5.371-.125 9.766-.208 9.767-.083.002-.473-1.196-.866-2.662-1.397-5.197-2.158-12.957-1.701-17.334.405-3.874.822-4.826 3.279-7.493 1.548-1.68 2.901-3.054 3.004-3.054.105 0-.63 2.477-1.63 5.505zm56.745 4.438c-.012 4.394-.151 8.118-.308 8.275-.158.158-1.452-1.135-2.876-2.874l-2.59-3.16 2.254-5.759c1.347-3.444 2.513-5.501 2.898-5.116.353.354.634 4.24.622 8.634zm23.309-.231c3.126 12.413.449 27.029-5.809 31.722-2.21 1.656-7.86 4.739-8.688 4.739-.216 0 .344-1.198 1.244-2.663.899-1.465 2.219-3.998 2.933-5.629.87-1.989 2.439-3.743 4.764-5.328 1.907-1.299 3.467-2.762 3.468-3.251.002-1.296-1.297-1.087-3.369.543-1 .787-1.925 1.324-2.055 1.194-.13-.13.233-2.452.806-5.16.574-2.708 1.043-5.723 1.043-6.699.001-2.319 3.696-13.507 4.332-13.114.27.166.868 1.807 1.331 3.646zm-50.384-.054c0 .232-.598 1.271-1.33 2.308-.732 1.038-2.303 3.82-3.49 6.183-1.345 2.679-2.852 4.614-3.996 5.136-1.011.46-1.837.712-1.837.559 0-.675 5.119-12.156 5.77-12.94.625-.753 1.419-1.04 4.351-1.573.293-.053.532.094.532.327zm9.114.198c1.856 1.177-6.688 19.238-17.103 36.15-2.728 4.43-5.059 7.954-5.18 7.833-.357-.357 1.747-11.9 3.015-16.545 1.886-6.909 6.291-17.139 9.814-22.793 3.12-5.007 3.411-5.266 5.895-5.256 1.437.006 3.039.281 3.559.611zm-17.892 4.173c-4.204 8.348-6.755 17.825-7.503 27.882l-.45 6.038-.867-4.675c-.477-2.572-.868-8.1-.868-12.285v-7.608l3.196-3.418c4.496-4.807 4.409-7.188-.104-2.814-2.02 1.958-2.251 2.04-1.895.677.465-1.779 3.764-4.491 7.357-6.051 1.35-.585 2.54-1.077 2.644-1.092.105-.015-.575 1.49-1.51 3.346zm24.439-2.29c1.152.596 2.096 1.552 2.096 2.125 0 1.661-6.725 14.139-11.629 21.578-4.619 7.008-12.229 15.829-14.88 17.248l-1.493.799 1.355-2.06c6.181-9.391 15.99-27.842 19.506-36.689.893-2.247 1.922-4.085 2.287-4.085.364 0 1.606.488 2.758 1.084zm-51.632 9.423c.771 7.772 4.512 17.17 10.453 26.255 2.507 3.833.96 2.605-3.195-2.539-6.83-8.454-10.141-18.057-9.141-26.505.521-4.403 1.282-3.275 1.883 2.789zm61.54.872c0 3.381-13.395 17.577-22.754 24.115l-4.541 3.171 3.527-4.252c1.939-2.338 4.9-6.37 6.58-8.958 2.77-4.269 3.449-4.855 7.28-6.289 2.325-.869 4.226-1.841 4.226-2.162 0-1.222-1.363-1.328-3.831-.296-1.408.589-2.561.925-2.561.749 0-.177 1.504-3.265 3.342-6.862l3.343-6.541 2.695 3.037c1.482 1.67 2.694 3.6 2.694 4.288zm14.244 10.056c-2.262 7.059-6.604 14.665-9.404 16.472-1.762 1.138-12.591 4.345-17.269 5.116l-2.841.468 3.551-1.917c9.584-5.173 18.999-14.403 24.747-24.261 3.691-6.329 4.108-4.912 1.216 4.122zm-60.215 3.073c.266 8.685.227 9.023-.652 5.683-1.027-3.896-1.247-10.897-.462-14.652.651-3.115.776-2.111 1.114 8.969zm10.811-6.293c-.633 1.508-1.915 5.618-2.849 9.134-1.351 5.091-1.704 5.845-1.731 3.7-.061-4.922 2.052-13.546 3.654-14.906 2.033-1.725 2.285-1.162.926 2.072zm30.811 6.115c-4.116 8.162-13.113 15.358-23.799 19.034-5.448 1.875-5.488 1.793-.595-1.229 7.641-4.719 14.798-10.391 20.575-16.31 3.125-3.2 5.767-5.844 5.87-5.876.104-.032-.82 1.94-2.051 4.381zm20.2 13.089c-5.349 6.553-13.819 11.488-21.533 12.548l-3.196.439 4.617-2.407c2.539-1.324 6.026-3.635 7.75-5.135 2.714-2.363 12.822-8.414 14.493-8.675.318-.05-.64 1.403-2.131 3.23zm-15.774 5.466c-1.403 1.691-9.57 5.336-14.535 6.488-4.035.935-5.719.977-10.816.263-3.32-.464-5.783-1.06-5.475-1.323.31-.264 3.853-.87 7.873-1.348 4.02-.479 10.732-1.766 14.915-2.86 9.37-2.451 9.014-2.397 8.038-1.22zM465.177 366.554c-.18.293-.555 2.37-.834 4.617-.28 2.247-.66 4.085-.846 4.085-.185 0-.927-.72-1.649-1.599-2.61-3.179-5.579 1.228-3.236 4.804 1.03 1.573 1.006 1.886-.321 4.138-2.989 5.065-3.63 11.296-2.89 28.057.522 11.824.097 44.985-.621 48.423-.041.196-1.109-2.681-2.373-6.393-1.265-3.712-3.311-8.611-4.548-10.888-1.82-3.348-2.122-4.478-1.579-5.907.37-.972.672-3.79.672-6.262 0-5.009-1.15-6.338-3.474-4.014-1.277 1.277-1.377 1.178-3.673-3.567-3.749-7.751-5.609-6.35-5.66 4.265-.02 4.378-.099 4.608-1.114 3.286-.6-.781-1.372-1.9-1.715-2.486-.483-.825-.913-.889-1.905-.284-2.591 1.583-1.711 8.39 1.365 10.544 1.068.749 1.223 1.27.68 2.284-1.79 3.345-2.25 9.55-1.223 16.477 1.038 6.999 2.084 21.392 2.907 40.022l.461 10.439-3.8.217c-2.091.119-3.801.537-3.801.928 0 1.06 25.535 1.538 58.595 1.095 18.447-.246 28.765-.64 28.765-1.095 0-.391-1.837-.807-4.084-.924-2.246-.117-4.083-.504-4.083-.86 0-3.773 6.084-55.79 7.559-64.635 1.251-7.499.98-12.874-.826-16.367-1.004-1.942-1.039-2.409-.216-2.87 1.307-.731 5.241-9.02 4.591-9.671-.28-.28-1.536-.121-2.79.354-2.13.806-2.376.734-3.702-1.085-3.244-4.45-4.491-5.552-5.337-4.72-.451.443-1 2.788-1.219 5.209l-.399 4.403-1.701-1.835c-.935-1.008-1.943-1.834-2.239-1.834-1.05 0-2.244 1.725-2.244 3.239 0 .844-1.134 2.737-2.519 4.206-2.795 2.964-5.869 8.692-7.754 14.445-.679 2.077-1.299 3.675-1.376 3.552-.078-.123.242-8.375.71-18.338 1.19-25.33.08-31.742-6.798-39.269-3.234-3.539-3.376-3.856-2.461-5.508 1.922-3.472.853-4.283-3.319-2.516-.847.359-1.745-.45-3.449-3.105-2.123-3.309-3.715-4.384-4.527-3.057zm4.262 5.506c1.976 3.128 3.271 3.904 4.148 2.485.241-.391.713-.71 1.048-.71.335 0-.107 1.359-.983 3.019-1.481 2.808-1.82 3.034-4.848 3.233-3.803.25-7.917-1.26-9.012-3.308-1.051-1.964.171-2.525 1.735-.796.699.772 1.708 1.404 2.244 1.404 1.283 0 2.358-2.953 2.358-6.482 0-3.348.597-3.14 3.31 1.155zm11.467 14.446c3.725 7.052 3.968 9.921 2.996 35.279-.899 23.459-1.082 24.857-5.541 42.521-.282 1.116-.6-12.31-.708-29.836-.178-29.189-.93-48.783-2.051-53.469l-.44-1.838 1.81 1.66c.995.913 2.765 3.47 3.934 5.683zm-15.489-4.385c.196.196.348 13.357.336 29.245-.016 21.722-.334 32.413-1.283 43.096-1.286 14.487-4.061 37.771-5.635 47.286l-.874 5.281-2.405.23-2.405.23.461-4.847c2.697-28.337 4.147-61.789 3.876-89.382l-.237-24.152 1.95-4.163c1.83-3.908 2.068-4.132 3.904-3.671 1.076.27 2.116.65 2.312.847zm8.826 2.192c1.923 13.131 2.489 86.533.782 101.405-.583 5.079-1.254 12.032-1.491 15.451l-.43 6.216h-6.731c-6.084 0-6.695-.121-6.349-1.244 1.269-4.125 5.35-39.883 6.911-60.559.96-12.709 1.213-51.209.387-58.74l-.56-5.108 3.057-.273c1.682-.151 3.253-.33 3.493-.398.24-.068.659 1.394.931 3.25zm33.791 27.882c2.426 3.783 2.818 3.994 5.113 2.765 1.407-.753 1.397-.656-.233 2.309-1.571 2.855-1.95 3.113-4.89 3.327-4.344.316-8.445-.996-9.178-2.936-.946-2.501-.044-2.887 2.053-.878 1.752 1.678 2.036 1.75 2.886.725.518-.624 1.086-2.875 1.263-5 .176-2.125.407-3.864.514-3.864.106 0 1.218 1.598 2.472 3.552zm-66.367 16.098c.592.227 1.704-.155 2.471-.849 1.365-1.236 1.394-1.197 1.394 1.999 0 3.549-1.022 6.92-2.353 7.767-.464.295-2.657.541-4.873.548-3.282.008-4.424-.322-6.162-1.785-2.333-1.963-3.569-5.681-2.309-6.942.537-.537.782-.545.782-.025 0 .416.671 1.611 1.493 2.655 2.316 2.946 3.294 1.395 3.902-6.192l.524-6.526 2.027 4.468c1.115 2.458 2.511 4.654 3.104 4.882zm59.242-5.955c.012.304-.923 2.425-2.078 4.714-5.781 11.453-12.719 37.268-16.795 62.494-1.428 8.834-2.705 16.463-2.837 16.951-.133.488-1.099.888-2.147.888h-1.906l.465-8.148c.957-16.759 4.057-34.708 9.039-52.341 3.995-14.137 6.6-20.496 9.966-24.32 2.842-3.229 2.889-3.25 4.571-2.027.934.68 1.709 1.484 1.722 1.789zm4.852 5.125c.295 6.806-2.101 22.551-5.566 36.589-3.664 14.849-5.582 25.994-6.143 35.696l-.441 7.637h-12.584l.419-3.02c4.474-32.279 11.683-61.153 19.247-77.096 1.801-3.796 2.797-5.151 3.664-4.986.953.182 1.233 1.216 1.404 5.18zm4.586-1.949c1.676 4.265 2.013 7.453 1.227 11.587-1.026 5.388-4.56 34.316-6.375 52.169-2.021 19.877-1.47 18.115-5.66 18.115-1.923 0-3.666-.275-3.874-.612-1.21-1.959 2.458-27.798 5.611-39.524 2.979-11.078 5.265-23.799 6.16-34.276.475-5.567 1.088-10.123 1.363-10.123.276 0 .972 1.2 1.548 2.664zm-74.844 26.639c.472 7.131 1.803 22.16 2.958 33.4 1.154 11.239 2.099 20.769 2.099 21.176 0 .423-1.147.646-2.663.521l-2.664-.221-.158-4.972c-.487-15.329-1.796-35.936-2.774-43.688-.617-4.884-.951-10.333-.743-12.11.39-3.338 1.767-7.07 2.607-7.07.263 0 .865 5.833 1.338 12.964zm11.716-7.814c1.348 2.832 3.486 8.507 4.753 12.609 2.384 7.721 2.733 12.442 1.627 21.961l-.448 3.847-1.998-9.754c-2.515-12.272-4.507-20.01-6.784-26.354-2.767-7.71-2.731-7.459-1.077-7.459 1.134 0 2.044 1.194 3.927 5.15zm-8.793.711c.459 2.832 2.867 16.338 5.351 30.013 2.483 13.674 4.734 26.541 5.002 28.592l.487 3.73h-3.256c-3.953 0-3.342 2.596-6.187-26.284-2.14-21.716-3.386-41.202-2.634-41.202.221 0 .777 2.318 1.237 5.151zm5.263 5.012c1.978 6.061 4.56 17.221 7.203 31.14 1.513 7.965 1.726 10.601 1.326 16.415-.263 3.809-.756 6.926-1.096 6.926-.34 0-.619-.633-.619-1.406 0-.773-2.216-13.64-4.926-28.592-2.709-14.953-5.116-28.625-5.349-30.383-.414-3.128-.4-3.157.647-1.322.588 1.031 1.854 4.281 2.814 7.222z" fill="#000E33"/><rect x="2" y="2" width="782" height="542" rx="20" stroke="#000E33" stroke-width="3"/><path d="M140 31.252v-9.159c0-.779-.931-1.16-1.465-.606l-3.068 3.082a15.511 15.511 0 00-5.712-3.644 15.462 15.462 0 00-6.713-.857c-7.221.658-13.167 6.492-13.96 13.746a15.633 15.633 0 003.312 11.332 15.46 15.46 0 0021.604 2.599 15.594 15.594 0 005.881-10.226 1.735 1.735 0 00-1.723-1.939c-.862 0-1.586.64-1.689 1.489-.741 6.042-5.928 10.717-12.15 10.63-6.394-.086-11.788-5.505-11.891-11.946-.104-6.752 5.36-12.292 12.064-12.292 3.326 0 6.342 1.368 8.53 3.55l-3.602 3.618c-.551.554-.172 1.488.604 1.488h9.116c.483 0 .862-.38.862-.865z" fill="#000E33"/><path d="M36 22L23 35l13 13M59 22l13 13-13 13" stroke="#000E33" stroke-width="3" stroke-linecap="round"/><path stroke="#000E33" stroke-width="3" d="M2 67.5h782"/><rect x="158.5" y="17.5" width="610" height="37" rx="11.5" stroke="#000E33" stroke-width="3"/><path d="M236.224 231.65h57.893V257h20.211v-25.35h14.045v-20.211h-14.045v-26.72h-20.211v26.72h-33.571l40.593-77.762h-22.78l-42.135 80.845v17.128zm155.369 27.063c30.488 0 48.644-23.808 48.644-63.374s-18.156-63.374-48.644-63.374c-30.317 0-48.644 23.808-48.644 63.374s18.327 63.374 48.644 63.374zm-28.433-63.374c0-28.433 9.764-43.163 28.433-43.163 18.67 0 28.433 14.73 28.433 43.163 0 28.432-9.763 43.163-28.433 43.163-18.669 0-28.433-14.731-28.433-43.163zm92.926 36.311h57.893V257h20.211v-25.35h14.045v-20.211H534.19v-26.72h-20.211v26.72h-33.571l40.594-77.762h-22.781l-42.135 80.845v17.128zM192.321 306.49c0 7.487 6.093 13.58 13.58 13.58 3.928 0 7.451-1.688 9.947-4.331l-3.046-3.083c-1.725 1.909-4.184 3.083-6.901 3.083-5.101 0-9.249-4.147-9.249-9.249s4.148-9.249 9.249-9.249c2.717 0 5.176 1.174 6.901 3.083l3.046-3.083a13.518 13.518 0 00-9.947-4.331c-7.487 0-13.58 6.093-13.58 13.58zm30.718-.881v14.094h4.258v-14.094h5.652v-4.257H217.35v4.257h5.689zm13.655 22.829h4.331v-11.047c1.211 1.468 3.34 2.679 5.652 2.679 5.285 0 9.102-4.294 9.102-9.543 0-5.285-3.817-9.542-9.102-9.542-2.312 0-4.441 1.211-5.652 2.716v-2.349h-4.331v27.086zm9.542-23.123c2.863 0 5.212 2.349 5.212 5.212 0 2.863-2.349 5.212-5.212 5.212-2.862 0-5.211-2.349-5.211-5.212 0-2.863 2.349-5.212 5.211-5.212zm13.006 5.212c0 5.249 3.854 9.543 9.103 9.543 2.312 0 4.441-1.211 5.652-2.716v2.349h4.331v-18.351h-4.331v2.275c-1.211-1.431-3.34-2.642-5.652-2.642-5.249 0-9.103 4.294-9.103 9.542zm9.543-5.212c2.863 0 5.212 2.349 5.212 5.212 0 2.863-2.349 5.212-5.212 5.212-2.863 0-5.212-2.349-5.212-5.212 0-2.863 2.349-5.212 5.212-5.212zm19.172 14.388v-7.047h8.552v7.047h4.257v-18.351h-4.257v7.047h-8.552v-7.047h-4.258v18.351h4.258zm35.531-18.351h-3.964l-9.139 11.488v-11.488h-4.258v18.351h3.964l9.102-11.488v11.488h4.295v-18.351zm5.318 18.351h15.011v4.037h4.331v-8.368h-2.349v-14.02h-4.331v14.02h-8.331v-14.02h-4.331v18.351zm21.724-9.176c0 5.249 3.854 9.543 9.102 9.543 2.313 0 4.441-1.211 5.653-2.716v2.349h4.33v-18.351h-4.33v2.275c-1.212-1.431-3.34-2.642-5.653-2.642-5.248 0-9.102 4.294-9.102 9.542zm9.543-5.212c2.863 0 5.212 2.349 5.212 5.212 0 2.863-2.349 5.212-5.212 5.212-2.863 0-5.212-2.349-5.212-5.212 0-2.863 2.349-5.212 5.212-5.212zm29.735 14.388v-7.047h8.552v7.047h4.258v-18.351h-4.258v7.047h-8.552v-7.047h-4.257v18.351h4.257zm17.073-9.176c0 5.396 4.22 9.543 9.763 9.543 3.009 0 5.579-1.064 7.34-3.01l-2.752-2.752c-1.102 1.211-2.79 1.835-4.552 1.835-2.716 0-4.771-1.395-5.505-3.67h13.653c.074-.734.184-1.505.184-2.203 0-5.468-3.56-9.285-8.772-9.285-5.322 0-9.359 4.147-9.359 9.542zm9.286-5.652c2.459 0 4.404 1.615 4.771 4.221h-9.837c.368-2.533 2.533-4.221 5.066-4.221zm28.021 14.828v-7.047h8.551v7.047h4.258v-18.351h-4.258v7.047h-8.551v-7.047h-4.258v18.351h4.258zm17.072-9.176c0 5.249 3.854 9.543 9.102 9.543 2.313 0 4.441-1.211 5.653-2.716v2.349h4.331v-18.351h-4.331v2.275c-1.212-1.431-3.34-2.642-5.653-2.642-5.248 0-9.102 4.294-9.102 9.542zm9.543-5.212c2.863 0 5.212 2.349 5.212 5.212 0 2.863-2.349 5.212-5.212 5.212-2.863 0-5.212-2.349-5.212-5.212 0-2.863 2.349-5.212 5.212-5.212zm32.275-3.963h-3.964l-9.139 11.488v-11.488h-4.258v18.351h3.964l9.103-11.488v11.488h4.294v-18.351zm-14.938-8.075c.073 3.67 2.422 5.689 6.239 5.689 3.854 0 6.166-2.019 6.276-5.689h-3.23c-.11 1.688-1.101 2.642-3.046 2.642-1.908 0-2.936-.954-3.046-2.642h-3.193zm18.354 30.463h4.331v-4.037h11.929v4.037h4.33v-8.368h-2.312v-14.02h-13.91c-.221 3.523-.404 6.056-.808 9.506-.183 1.541-.44 3.67-1.505 4.514h-2.055v8.368zm7.708-11.634c.257-2.129.403-4.185.587-6.497h5.726v9.763h-6.864c.33-1.064.441-2.239.551-3.266zm15.309-1.579c0 5.396 4.22 9.543 9.763 9.543 3.009 0 5.579-1.064 7.34-3.01l-2.752-2.752c-1.102 1.211-2.79 1.835-4.552 1.835-2.716 0-4.771-1.395-5.505-3.67h13.653c.074-.734.184-1.505.184-2.203 0-5.468-3.56-9.285-8.772-9.285-5.322 0-9.359 4.147-9.359 9.542zm9.286-5.652c2.459 0 4.404 1.615 4.771 4.221h-9.837c.368-2.533 2.533-4.221 5.066-4.221zm17.314 14.828v-7.047h8.551v7.047h4.258v-18.351h-4.258v7.047h-8.551v-7.047h-4.258v18.351h4.258zm17.072-9.176c0 5.249 3.854 9.543 9.102 9.543 2.313 0 4.441-1.211 5.653-2.716v2.349h4.331v-18.351h-4.331v2.275c-1.212-1.431-3.34-2.642-5.653-2.642-5.248 0-9.102 4.294-9.102 9.542zm9.543-5.212c2.863 0 5.212 2.349 5.212 5.212 0 2.863-2.349 5.212-5.212 5.212-2.863 0-5.212-2.349-5.212-5.212 0-2.863 2.349-5.212 5.212-5.212zM176.002 43v-6.139c0-1.796 1.205-2.933 2.751-2.933 1.432 0 2.433.887 2.433 2.797V43h2.683v-6.844c0-2.887-1.819-4.752-4.457-4.752a4.716 4.716 0 00-3.41 1.455v-1.227h-2.683V43h2.683zm16.42-11.596a5.914 5.914 0 00-5.912 5.912c0 3.251 2.66 5.911 5.912 5.911a5.914 5.914 0 005.911-5.911 5.9 5.9 0 00-5.911-5.912zm-3.229 5.912a3.241 3.241 0 013.229-3.229 3.24 3.24 0 013.228 3.229 3.24 3.24 0 01-3.228 3.228 3.241 3.241 0 01-3.229-3.228zm10.737-5.684v2.683h2.092v4.865c0 2.865 1.091 4.047 3.683 4.047a8.25 8.25 0 001.887-.227v-2.547c-.568.114-1.023.182-1.523.182-1.092 0-1.365-.454-1.365-2.25v-4.07h2.888v-2.683h-2.888v-3.047h-2.682v2.069c0 .591-.41.978-1.001.978h-1.091zm17.972 2.683V43h2.683v-8.685h2.796v-2.683h-2.796V31.2c0-1.728.75-2.206 2.092-2.206h.704v-2.592h-.932c-2.796 0-4.547 1.342-4.547 4.616v.614h-1.91v2.683h1.91zm12.686-2.91a5.914 5.914 0 00-5.912 5.91c0 3.252 2.66 5.912 5.912 5.912a5.914 5.914 0 005.911-5.911 5.9 5.9 0 00-5.911-5.912zm-3.229 5.91a3.241 3.241 0 013.229-3.228 3.24 3.24 0 013.228 3.229 3.24 3.24 0 01-3.228 3.228 3.241 3.241 0 01-3.229-3.228zm11.868-5.683v6.843c0 2.888 1.819 4.752 4.457 4.752a4.716 4.716 0 003.41-1.455V43h2.683V31.632h-2.683v6.138c0 1.774-1.205 2.934-2.751 2.934-1.432 0-2.433-.91-2.433-2.797v-6.275h-2.683zM255.781 43v-6.139c0-1.796 1.205-2.933 2.752-2.933 1.432 0 2.432.887 2.432 2.797V43h2.683v-6.844c0-2.887-1.819-4.752-4.456-4.752a4.718 4.718 0 00-3.411 1.455v-1.227h-2.683V43h2.683zm10.509-5.684c0 3.251 2.387 5.911 5.638 5.911 1.433 0 2.752-.75 3.502-1.682V43h2.683V26.63h-2.683v6.411c-.75-.886-2.069-1.637-3.502-1.637-3.251 0-5.638 2.66-5.638 5.912zm5.911-3.229a3.241 3.241 0 013.229 3.229 3.241 3.241 0 01-3.229 3.228 3.24 3.24 0 01-3.228-3.228 3.24 3.24 0 013.228-3.229z" fill="#000E33"/></svg>