<svg width="75" height="32" fill="none" xmlns="http://www.w3.org/2000/svg"><path d="M.772.96V24h14.752v-3.776H4.548V.96H.772zm25.467 6.72c-4.576 0-8.32 3.712-8.32 8.32 0 4.576 3.744 8.32 8.32 8.32 4.608 0 8.32-3.744 8.32-8.32a8.303 8.303 0 00-8.32-8.32zM21.695 16c0-2.496 2.048-4.544 4.544-4.544 2.496 0 4.544 2.048 4.544 4.544 0 2.496-2.048 4.544-4.544 4.544-2.496 0-4.544-2.048-4.544-4.544zm15.871 0c0 4.576 3.36 8.32 7.936 8.32 2.017 0 3.872-1.056 4.928-2.368v1.984c0 2.4-1.727 3.84-4.703 3.84-1.569 0-3.264-.576-4.512-1.632l-2.625 2.624c1.888 1.728 4.544 2.592 7.072 2.592 5.313 0 8.544-2.912 8.544-7.68V8H50.43v1.984C49.375 8.736 47.52 7.68 45.503 7.68c-4.576 0-7.936 3.744-7.936 8.32zm8.32-4.544c2.496 0 4.544 2.048 4.544 4.544 0 2.496-2.047 4.544-4.544 4.544-2.495 0-4.544-2.048-4.544-4.544 0-2.496 2.049-4.544 4.544-4.544zM66.254 7.68c-4.576 0-8.32 3.712-8.32 8.32 0 4.576 3.744 8.32 8.32 8.32 4.608 0 8.32-3.744 8.32-8.32a8.303 8.303 0 00-8.32-8.32zM61.709 16c0-2.496 2.048-4.544 4.544-4.544 2.496 0 4.544 2.048 4.544 4.544 0 2.496-2.048 4.544-4.544 4.544-2.496 0-4.544-2.048-4.544-4.544z" fill="#000"/></svg>