<svg width="161" height="32" fill="none" xmlns="http://www.w3.org/2000/svg"><path d="M20 22a8 8 0 01-16 0V10a8 8 0 1116 0v12zM12 0A10 10 0 002 10v12a10 10 0 0020 0V10A10 10 0 0012 0z" fill="#000" fill-opacity=".83"/><path d="M12.707 6.293A1 1 0 0011 7v4a1 1 0 002 0V7a1 1 0 00-.293-.707z" fill="#0543E2"/><path d="M40.98 22V11.92h7.567V22h-.805v-9.296h-5.957V22h-.805zm13.54.21c-.681 0-1.257-.177-1.729-.532-.471-.355-.83-.833-1.078-1.435-.247-.602-.37-1.281-.37-2.037 0-.76.123-1.44.37-2.037.248-.602.614-1.076 1.1-1.421.485-.345 1.08-.518 1.784-.518.686 0 1.272.175 1.757.525.486.35.854.826 1.106 1.428.257.602.385 1.276.385 2.023 0 .756-.13 1.437-.392 2.044a3.327 3.327 0 01-1.127 1.435c-.49.35-1.092.525-1.806.525zm-3.31 3.15V14.44h.734v5.824h.07v5.096h-.805zm3.261-3.92c.556 0 1.018-.142 1.386-.427.374-.285.654-.67.84-1.155.192-.49.287-1.04.287-1.652 0-.607-.093-1.15-.28-1.631-.182-.485-.46-.868-.833-1.148-.368-.285-.84-.427-1.414-.427-.555 0-1.02.138-1.393.413-.373.27-.653.649-.84 1.134-.186.485-.28 1.038-.28 1.659 0 .616.091 1.169.273 1.659.187.485.467.87.84 1.155.378.28.85.42 1.414.42zm8.715.77c-.751 0-1.388-.17-1.91-.511a3.265 3.265 0 01-1.198-1.414c-.275-.602-.413-1.295-.413-2.079 0-.789.14-1.482.42-2.079a3.219 3.219 0 011.204-1.4c.527-.331 1.16-.497 1.897-.497.751 0 1.388.17 1.911.511.527.336.926.803 1.197 1.4.275.597.413 1.286.413 2.065 0 .798-.138 1.498-.413 2.1a3.212 3.212 0 01-1.204 1.4c-.527.336-1.162.504-1.904.504zm0-.784c.891 0 1.556-.299 1.995-.896.443-.597.665-1.372.665-2.324 0-.97-.222-1.745-.665-2.324-.443-.579-1.108-.868-1.995-.868-.602 0-1.099.138-1.49.413-.393.27-.687.646-.883 1.127-.191.476-.287 1.027-.287 1.652 0 .97.224 1.75.672 2.338.453.588 1.115.882 1.988.882zm5.761.574v-7.56h.812v3.64l3.577-3.64h1.127l-3.745 3.78L74.995 22h-1.253l-3.983-3.64V22h-.812zm10.765.21c-.681 0-1.258-.177-1.729-.532-.471-.355-.83-.833-1.078-1.435-.247-.602-.37-1.281-.37-2.037 0-.76.123-1.44.37-2.037.247-.602.614-1.076 1.1-1.421.484-.345 1.08-.518 1.784-.518.686 0 1.272.175 1.757.525.485.35.854.826 1.106 1.428.257.602.385 1.276.385 2.023 0 .756-.13 1.437-.392 2.044a3.327 3.327 0 01-1.127 1.435c-.49.35-1.092.525-1.806.525zm-3.31 3.15V14.44h.734v5.824h.07v5.096h-.805zm3.261-3.92c.555 0 1.017-.142 1.386-.427.373-.285.653-.67.84-1.155.191-.49.287-1.04.287-1.652 0-.607-.093-1.15-.28-1.631-.182-.485-.46-.868-.833-1.148-.369-.285-.84-.427-1.414-.427-.555 0-1.02.138-1.393.413-.373.27-.653.649-.84 1.134-.187.485-.28 1.038-.28 1.659 0 .616.091 1.169.273 1.659.187.485.467.87.84 1.155.378.28.85.42 1.414.42zm6.446 3.92l1.47-3.955.014 1.176-3.31-8.141h.86l2.842 7.07h-.448l2.583-7.07h.847L86.95 25.36h-.84zM95.043 22v-6.79h-2.737v-.77h6.279v.77h-2.737V22h-.805zm11.39-7.56V22h-.791v-6.209L101.316 22h-.707v-7.56h.791v6.181l4.326-6.181h.707zm4.762 7.56v-6.79h-2.737v-.77h6.279v.77H112V22h-.805zm8.68.21c-.723 0-1.348-.161-1.876-.483a3.27 3.27 0 01-1.225-1.379c-.289-.597-.434-1.302-.434-2.114 0-.826.143-1.538.427-2.135.29-.602.696-1.064 1.218-1.386.528-.322 1.153-.483 1.876-.483.733 0 1.358.168 1.876.504.523.331.92.812 1.19 1.442.276.63.406 1.388.392 2.275h-.84v-.28c-.023-1.036-.256-1.825-.7-2.366-.443-.541-1.078-.812-1.904-.812-.854 0-1.514.282-1.981.847-.462.56-.693 1.353-.693 2.38 0 1.017.231 1.806.693 2.366.467.56 1.123.84 1.967.84.584 0 1.092-.135 1.526-.406a2.876 2.876 0 001.043-1.176l.728.322c-.303.653-.742 1.157-1.316 1.512-.574.355-1.229.532-1.967.532zm-2.982-3.759v-.728h5.971v.728h-5.971zM129.071 22v-7.56h3.003c.13 0 .31.01.539.028.233.014.455.049.665.105.443.112.788.345 1.036.7.252.355.378.768.378 1.239 0 .252-.038.485-.112.7-.07.21-.178.397-.322.56a1.44 1.44 0 01-.224.217c-.084.06-.166.11-.245.147.14.028.298.1.476.217.27.168.471.39.602.665.13.275.196.593.196.952 0 .518-.126.938-.378 1.26a1.81 1.81 0 01-.966.651 2.829 2.829 0 01-.609.105c-.215.01-.411.014-.588.014h-3.451zm.812-.728h2.618c.098 0 .226-.007.385-.021.158-.019.298-.042.42-.07.317-.075.546-.226.686-.455.144-.233.217-.49.217-.77 0-.369-.11-.67-.329-.903-.22-.238-.518-.38-.896-.427a2.007 2.007 0 00-.343-.028 8.233 8.233 0 00-.329-.007h-2.429v2.681zm0-3.416h2.352c.112 0 .245-.007.399-.021.154-.019.291-.049.413-.091.27-.093.471-.252.602-.476.13-.229.196-.474.196-.735 0-.294-.07-.548-.21-.763a1.147 1.147 0 00-.609-.469 2.222 2.222 0 00-.588-.105 7.694 7.694 0 00-.378-.021h-2.177v2.681zM137.167 22v-7.56h.805v3.388h4.557V14.44h.805V22h-.805v-3.388h-4.557V22h-.805zm14.645-7.56V22h-.791v-6.209L146.695 22h-.707v-7.56h.791v6.181l4.326-6.181h.707zm5.386 7.77c-.775 0-1.44-.17-1.995-.511a3.641 3.641 0 01-1.316-1.442l.658-.399c.275.509.63.898 1.064 1.169.438.266.945.399 1.519.399.597 0 1.078-.14 1.442-.42.368-.285.553-.674.553-1.169 0-.317-.068-.579-.203-.784-.136-.205-.35-.357-.644-.455-.294-.098-.677-.147-1.148-.147h-1.008v-.721h1.001c.555 0 .996-.11 1.323-.329.331-.22.497-.544.497-.973 0-.476-.175-.83-.525-1.064-.35-.233-.773-.35-1.267-.35-.476 0-.922.098-1.337.294a3.01 3.01 0 00-1.015.763l-.56-.546c.359-.43.791-.751 1.295-.966a4.184 4.184 0 011.687-.329c.485 0 .919.086 1.302.259.387.173.69.42.91.742.224.322.336.707.336 1.155 0 .453-.112.835-.336 1.148-.224.313-.532.56-.924.742l-.077-.336c.354.042.644.166.868.371.228.205.394.453.497.742.102.285.154.574.154.868 0 .462-.119.866-.357 1.211a2.38 2.38 0 01-.98.798c-.416.187-.887.28-1.414.28z" fill="#000" fill-opacity=".83"/></svg>