<svg width="24" height="24" fill="none" xmlns="http://www.w3.org/2000/svg"><path d="M20.955 16.068v2.559c.001.237-.05.473-.151.69-.101.218-.25.413-.435.574-.186.16-.405.283-.644.359a1.914 1.914 0 01-.743.083 18.622 18.622 0 01-7.81-2.619 17.177 17.177 0 01-5.43-5.118A16.268 16.268 0 012.963 5.2 1.614 1.614 0 013.05 4.5c.08-.224.21-.43.379-.605.17-.175.376-.315.606-.41.23-.096.478-.146.73-.146h2.714c.44-.004.865.142 1.198.412.333.27.55.645.612 1.055.115.82.327 1.623.634 2.397.122.306.148.637.076.956a1.68 1.68 0 01-.483.844l-1.15 1.084c1.289 2.135 3.165 3.904 5.43 5.118l1.15-1.083c.246-.23.557-.388.895-.456.339-.068.69-.043 1.014.072.822.289 1.675.489 2.544.597.44.058.84.267 1.128.586.287.32.44.727.428 1.146z" fill="#fff"/></svg>