<svg width="34" height="34" fill="none" xmlns="http://www.w3.org/2000/svg"><path d="M17 2.125L4.25 6.375v12.75c0 7.042 5.708 12.75 12.75 12.75s12.75-5.708 12.75-12.75V6.375L17 2.125zm10.36 17c0 5.72-4.64 10.36-10.36 10.36s-10.36-4.64-10.36-10.36V8.168L17 4.516l10.36 3.652v10.957z" fill="#fff"/><path d="M12.564 15.775a1.193 1.193 0 00-2.041.845 1.192 1.192 0 00.351.845l4.296 4.296.07.07a1.13 1.13 0 001.597 0l7.421-7.42a1.131 1.131 0 000-1.598l-.093-.093a1.128 1.128 0 00-1.597 0l-6.53 6.528-3.474-3.473z" fill="#fff"/></svg>