<svg width="1224" height="642" fill="none" xmlns="http://www.w3.org/2000/svg"><g clip-path="url(#clip0_125_13899)" fill="#B4C1E4"><path d="M0-225a1 1 0 112 0 1 1 0 01-2 0zM0-199a1 1 0 112 0 1 1 0 01-2 0zM0-173a1 1 0 112 0 1 1 0 01-2 0zM0-147a1 1 0 112 0 1 1 0 01-2 0zM0-121a1 1 0 112 0 1 1 0 01-2 0zM0-95a1 1 0 112 0 1 1 0 01-2 0zM0-69a1 1 0 112 0 1 1 0 01-2 0zM0-43a1 1 0 112 0 1 1 0 01-2 0zM0-17a1 1 0 112 0 1 1 0 01-2 0zM0 9a1 1 0 112 0 1 1 0 01-2 0zM0 35a1 1 0 112 0 1 1 0 01-2 0zM0 61a1 1 0 112 0 1 1 0 01-2 0zM0 87a1 1 0 112 0 1 1 0 01-2 0zM0 113a1 1 0 112 0 1 1 0 01-2 0zM0 139a1 1 0 112 0 1 1 0 01-2 0zM0 165a1 1 0 112 0 1 1 0 01-2 0zM0 191a1 1 0 112 0 1 1 0 01-2 0zM0 217a1 1 0 112 0 1 1 0 01-2 0zM0 243a1 1 0 112 0 1 1 0 01-2 0zM0 269a1 1 0 112 0 1 1 0 01-2 0zM0 295a1 1 0 112 0 1 1 0 01-2 0zM0 321a1 1 0 112 0 1 1 0 01-2 0zM0 347a1 1 0 112 0 1 1 0 01-2 0zM0 373a1 1 0 112 0 1 1 0 01-2 0zM0 399a1 1 0 112 0 1 1 0 01-2 0zM0 425a1 1 0 112 0 1 1 0 01-2 0zM0 451a1 1 0 112 0 1 1 0 01-2 0zM0 477a1 1 0 112 0 1 1 0 01-2 0zM0 503a1 1 0 112 0 1 1 0 01-2 0zM0 529a1 1 0 112 0 1 1 0 01-2 0zM0 555a1 1 0 112 0 1 1 0 01-2 0zM0 581a1 1 0 112 0 1 1 0 01-2 0zM0 607a1 1 0 112 0 1 1 0 01-2 0zM0 633a1 1 0 112 0 1 1 0 01-2 0zM0 659a1 1 0 112 0 1 1 0 01-2 0zM0 685a1 1 0 112 0 1 1 0 01-2 0zM0 711a1 1 0 112 0 1 1 0 01-2 0zM0 737a1 1 0 112 0 1 1 0 01-2 0zM0 763a1 1 0 112 0 1 1 0 01-2 0zM0 789a1 1 0 112 0 1 1 0 01-2 0zM0 815a1 1 0 112 0 1 1 0 01-2 0zM0 841a1 1 0 112 0 1 1 0 01-2 0zM0 867a1 1 0 112 0 1 1 0 01-2 0zM26-225a1 1 0 112 0 1 1 0 01-2 0zM26-199a1 1 0 112 0 1 1 0 01-2 0zM26-173a1 1 0 112 0 1 1 0 01-2 0zM26-147a1 1 0 112 0 1 1 0 01-2 0zM26-121a1 1 0 112 0 1 1 0 01-2 0zM26-95a1 1 0 112 0 1 1 0 01-2 0zM26-69a1 1 0 112 0 1 1 0 01-2 0zM26-43a1 1 0 112 0 1 1 0 01-2 0zM26-17a1 1 0 112 0 1 1 0 01-2 0zM26 9a1 1 0 112 0 1 1 0 01-2 0zM26 35a1 1 0 112 0 1 1 0 01-2 0zM26 61a1 1 0 112 0 1 1 0 01-2 0zM26 87a1 1 0 112 0 1 1 0 01-2 0zM26 113a1 1 0 112 0 1 1 0 01-2 0zM26 139a1 1 0 112 0 1 1 0 01-2 0zM26 165a1 1 0 112 0 1 1 0 01-2 0zM26 191a1 1 0 112 0 1 1 0 01-2 0zM26 217a1 1 0 112 0 1 1 0 01-2 0zM26 243a1 1 0 112 0 1 1 0 01-2 0zM26 269a1 1 0 112 0 1 1 0 01-2 0zM26 295a1 1 0 112 0 1 1 0 01-2 0zM26 321a1 1 0 112 0 1 1 0 01-2 0zM26 347a1 1 0 112 0 1 1 0 01-2 0zM26 373a1 1 0 112 0 1 1 0 01-2 0zM26 399a1 1 0 112 0 1 1 0 01-2 0zM26 425a1 1 0 112 0 1 1 0 01-2 0zM26 451a1 1 0 112 0 1 1 0 01-2 0zM26 477a1 1 0 112 0 1 1 0 01-2 0zM26 503a1 1 0 112 0 1 1 0 01-2 0zM26 529a1 1 0 112 0 1 1 0 01-2 0zM26 555a1 1 0 112 0 1 1 0 01-2 0zM26 581a1 1 0 112 0 1 1 0 01-2 0zM26 607a1 1 0 112 0 1 1 0 01-2 0zM26 633a1 1 0 112 0 1 1 0 01-2 0zM26 659a1 1 0 112 0 1 1 0 01-2 0zM26 685a1 1 0 112 0 1 1 0 01-2 0zM26 711a1 1 0 112 0 1 1 0 01-2 0zM26 737a1 1 0 112 0 1 1 0 01-2 0zM26 763a1 1 0 112 0 1 1 0 01-2 0zM26 789a1 1 0 112 0 1 1 0 01-2 0zM26 815a1 1 0 112 0 1 1 0 01-2 0zM26 841a1 1 0 112 0 1 1 0 01-2 0zM26 867a1 1 0 112 0 1 1 0 01-2 0zM52-225a1 1 0 112 0 1 1 0 01-2 0zM52-199a1 1 0 112 0 1 1 0 01-2 0zM52-173a1 1 0 112 0 1 1 0 01-2 0zM52-147a1 1 0 112 0 1 1 0 01-2 0zM52-121a1 1 0 112 0 1 1 0 01-2 0zM52-95a1 1 0 112 0 1 1 0 01-2 0zM52-69a1 1 0 112 0 1 1 0 01-2 0zM52-43a1 1 0 112 0 1 1 0 01-2 0zM52-17a1 1 0 112 0 1 1 0 01-2 0zM52 9a1 1 0 112 0 1 1 0 01-2 0zM52 35a1 1 0 112 0 1 1 0 01-2 0zM52 61a1 1 0 112 0 1 1 0 01-2 0zM52 87a1 1 0 112 0 1 1 0 01-2 0zM52 113a1 1 0 112 0 1 1 0 01-2 0zM52 139a1 1 0 112 0 1 1 0 01-2 0zM52 165a1 1 0 112 0 1 1 0 01-2 0zM52 191a1 1 0 112 0 1 1 0 01-2 0zM52 217a1 1 0 112 0 1 1 0 01-2 0zM52 243a1 1 0 112 0 1 1 0 01-2 0zM52 269a1 1 0 112 0 1 1 0 01-2 0zM52 295a1 1 0 112 0 1 1 0 01-2 0zM52 321a1 1 0 112 0 1 1 0 01-2 0zM52 347a1 1 0 112 0 1 1 0 01-2 0zM52 373a1 1 0 112 0 1 1 0 01-2 0zM52 399a1 1 0 112 0 1 1 0 01-2 0zM52 425a1 1 0 112 0 1 1 0 01-2 0zM52 451a1 1 0 112 0 1 1 0 01-2 0zM52 477a1 1 0 112 0 1 1 0 01-2 0zM52 503a1 1 0 112 0 1 1 0 01-2 0zM52 529a1 1 0 112 0 1 1 0 01-2 0zM52 555a1 1 0 112 0 1 1 0 01-2 0zM52 581a1 1 0 112 0 1 1 0 01-2 0zM52 607a1 1 0 112 0 1 1 0 01-2 0zM52 633a1 1 0 112 0 1 1 0 01-2 0zM52 659a1 1 0 112 0 1 1 0 01-2 0zM52 685a1 1 0 112 0 1 1 0 01-2 0zM52 711a1 1 0 112 0 1 1 0 01-2 0zM52 737a1 1 0 112 0 1 1 0 01-2 0zM52 763a1 1 0 112 0 1 1 0 01-2 0zM52 789a1 1 0 112 0 1 1 0 01-2 0zM52 815a1 1 0 112 0 1 1 0 01-2 0zM52 841a1 1 0 112 0 1 1 0 01-2 0zM52 867a1 1 0 112 0 1 1 0 01-2 0zM78-225a1 1 0 112 0 1 1 0 01-2 0zM78-199a1 1 0 112 0 1 1 0 01-2 0zM78-173a1 1 0 112 0 1 1 0 01-2 0zM78-147a1 1 0 112 0 1 1 0 01-2 0zM78-121a1 1 0 112 0 1 1 0 01-2 0zM78-95a1 1 0 112 0 1 1 0 01-2 0zM78-69a1 1 0 112 0 1 1 0 01-2 0zM78-43a1 1 0 112 0 1 1 0 01-2 0zM78-17a1 1 0 112 0 1 1 0 01-2 0zM78 9a1 1 0 112 0 1 1 0 01-2 0zM78 35a1 1 0 112 0 1 1 0 01-2 0zM78 61a1 1 0 112 0 1 1 0 01-2 0zM78 87a1 1 0 112 0 1 1 0 01-2 0zM78 113a1 1 0 112 0 1 1 0 01-2 0zM78 139a1 1 0 112 0 1 1 0 01-2 0zM78 165a1 1 0 112 0 1 1 0 01-2 0zM78 191a1 1 0 112 0 1 1 0 01-2 0zM78 217a1 1 0 112 0 1 1 0 01-2 0zM78 243a1 1 0 112 0 1 1 0 01-2 0zM78 269a1 1 0 112 0 1 1 0 01-2 0zM78 295a1 1 0 112 0 1 1 0 01-2 0zM78 321a1 1 0 112 0 1 1 0 01-2 0zM78 347a1 1 0 112 0 1 1 0 01-2 0zM78 373a1 1 0 112 0 1 1 0 01-2 0zM78 399a1 1 0 112 0 1 1 0 01-2 0zM78 425a1 1 0 112 0 1 1 0 01-2 0zM78 451a1 1 0 112 0 1 1 0 01-2 0zM78 477a1 1 0 112 0 1 1 0 01-2 0zM78 503a1 1 0 112 0 1 1 0 01-2 0zM78 529a1 1 0 112 0 1 1 0 01-2 0zM78 555a1 1 0 112 0 1 1 0 01-2 0zM78 581a1 1 0 112 0 1 1 0 01-2 0zM78 607a1 1 0 112 0 1 1 0 01-2 0zM78 633a1 1 0 112 0 1 1 0 01-2 0zM78 659a1 1 0 112 0 1 1 0 01-2 0zM78 685a1 1 0 112 0 1 1 0 01-2 0zM78 711a1 1 0 112 0 1 1 0 01-2 0zM78 737a1 1 0 112 0 1 1 0 01-2 0zM78 763a1 1 0 112 0 1 1 0 01-2 0zM78 789a1 1 0 112 0 1 1 0 01-2 0zM78 815a1 1 0 112 0 1 1 0 01-2 0zM78 841a1 1 0 112 0 1 1 0 01-2 0zM78 867a1 1 0 112 0 1 1 0 01-2 0zM104-225a1 1 0 112 0 1 1 0 01-2 0zM104-199a1 1 0 112 0 1 1 0 01-2 0zM104-173a1 1 0 112 0 1 1 0 01-2 0zM104-147a1 1 0 112 0 1 1 0 01-2 0zM104-121a1 1 0 112 0 1 1 0 01-2 0zM104-95a1 1 0 112 0 1 1 0 01-2 0zM104-69a1 1 0 112 0 1 1 0 01-2 0zM104-43a1 1 0 112 0 1 1 0 01-2 0zM104-17a1 1 0 112 0 1 1 0 01-2 0zM104 9a1 1 0 112 0 1 1 0 01-2 0zM104 35a1 1 0 112 0 1 1 0 01-2 0zM104 61a1 1 0 112 0 1 1 0 01-2 0zM104 87a1 1 0 112 0 1 1 0 01-2 0zM104 113a1 1 0 112 0 1 1 0 01-2 0zM104 139a1 1 0 112 0 1 1 0 01-2 0zM104 165a1 1 0 112 0 1 1 0 01-2 0zM104 191a1 1 0 112 0 1 1 0 01-2 0zM104 217a1 1 0 112 0 1 1 0 01-2 0zM104 243a1 1 0 112 0 1 1 0 01-2 0zM104 269a1 1 0 112 0 1 1 0 01-2 0zM104 295a1 1 0 112 0 1 1 0 01-2 0zM104 321a1 1 0 112 0 1 1 0 01-2 0zM104 347a1 1 0 112 0 1 1 0 01-2 0zM104 373a1 1 0 112 0 1 1 0 01-2 0zM104 399a1 1 0 112 0 1 1 0 01-2 0zM104 425a1 1 0 112 0 1 1 0 01-2 0zM104 451a1 1 0 112 0 1 1 0 01-2 0zM104 477a1 1 0 112 0 1 1 0 01-2 0zM104 503a1 1 0 112 0 1 1 0 01-2 0zM104 529a1 1 0 112 0 1 1 0 01-2 0zM104 555a1 1 0 112 0 1 1 0 01-2 0zM104 581a1 1 0 112 0 1 1 0 01-2 0zM104 607a1 1 0 112 0 1 1 0 01-2 0zM104 633a1 1 0 112 0 1 1 0 01-2 0zM104 659a1 1 0 112 0 1 1 0 01-2 0zM104 685a1 1 0 112 0 1 1 0 01-2 0zM104 711a1 1 0 112 0 1 1 0 01-2 0zM104 737a1 1 0 112 0 1 1 0 01-2 0zM104 763a1 1 0 112 0 1 1 0 01-2 0zM104 789a1 1 0 112 0 1 1 0 01-2 0zM104 815a1 1 0 112 0 1 1 0 01-2 0zM104 841a1 1 0 112 0 1 1 0 01-2 0zM104 867a1 1 0 112 0 1 1 0 01-2 0zM130-225a1 1 0 112 0 1 1 0 01-2 0zM130-199a1 1 0 112 0 1 1 0 01-2 0zM130-173a1 1 0 112 0 1 1 0 01-2 0zM130-147a1 1 0 112 0 1 1 0 01-2 0zM130-121a1 1 0 112 0 1 1 0 01-2 0zM130-95a1 1 0 112 0 1 1 0 01-2 0zM130-69a1 1 0 112 0 1 1 0 01-2 0zM130-43a1 1 0 112 0 1 1 0 01-2 0zM130-17a1 1 0 112 0 1 1 0 01-2 0zM130 9a1 1 0 112 0 1 1 0 01-2 0zM130 35a1 1 0 112 0 1 1 0 01-2 0zM130 61a1 1 0 112 0 1 1 0 01-2 0zM130 87a1 1 0 112 0 1 1 0 01-2 0zM130 113a1 1 0 112 0 1 1 0 01-2 0zM130 139a1 1 0 112 0 1 1 0 01-2 0zM130 165a1 1 0 112 0 1 1 0 01-2 0zM130 191a1 1 0 112 0 1 1 0 01-2 0zM130 217a1 1 0 112 0 1 1 0 01-2 0zM130 243a1 1 0 112 0 1 1 0 01-2 0zM130 269a1 1 0 112 0 1 1 0 01-2 0zM130 295a1 1 0 112 0 1 1 0 01-2 0zM130 321a1 1 0 112 0 1 1 0 01-2 0zM130 347a1 1 0 112 0 1 1 0 01-2 0zM130 373a1 1 0 112 0 1 1 0 01-2 0zM130 399a1 1 0 112 0 1 1 0 01-2 0zM130 425a1 1 0 112 0 1 1 0 01-2 0zM130 451a1 1 0 112 0 1 1 0 01-2 0zM130 477a1 1 0 112 0 1 1 0 01-2 0zM130 503a1 1 0 112 0 1 1 0 01-2 0zM130 529a1 1 0 112 0 1 1 0 01-2 0zM130 555a1 1 0 112 0 1 1 0 01-2 0zM130 581a1 1 0 112 0 1 1 0 01-2 0zM130 607a1 1 0 112 0 1 1 0 01-2 0zM130 633a1 1 0 112 0 1 1 0 01-2 0zM130 659a1 1 0 112 0 1 1 0 01-2 0zM130 685a1 1 0 112 0 1 1 0 01-2 0zM130 711a1 1 0 112 0 1 1 0 01-2 0zM130 737a1 1 0 112 0 1 1 0 01-2 0zM130 763a1 1 0 112 0 1 1 0 01-2 0zM130 789a1 1 0 112 0 1 1 0 01-2 0zM130 815a1 1 0 112 0 1 1 0 01-2 0zM130 841a1 1 0 112 0 1 1 0 01-2 0zM130 867a1 1 0 112 0 1 1 0 01-2 0zM156-225a1 1 0 112 0 1 1 0 01-2 0zM156-199a1 1 0 112 0 1 1 0 01-2 0zM156-173a1 1 0 112 0 1 1 0 01-2 0zM156-147a1 1 0 112 0 1 1 0 01-2 0zM156-121a1 1 0 112 0 1 1 0 01-2 0zM156-95a1 1 0 112 0 1 1 0 01-2 0zM156-69a1 1 0 112 0 1 1 0 01-2 0zM156-43a1 1 0 112 0 1 1 0 01-2 0zM156-17a1 1 0 112 0 1 1 0 01-2 0zM156 9a1 1 0 112 0 1 1 0 01-2 0zM156 35a1 1 0 112 0 1 1 0 01-2 0zM156 61a1 1 0 112 0 1 1 0 01-2 0zM156 87a1 1 0 112 0 1 1 0 01-2 0zM156 113a1 1 0 112 0 1 1 0 01-2 0zM156 139a1 1 0 112 0 1 1 0 01-2 0zM156 165a1 1 0 112 0 1 1 0 01-2 0zM156 191a1 1 0 112 0 1 1 0 01-2 0zM156 217a1 1 0 112 0 1 1 0 01-2 0zM156 243a1 1 0 112 0 1 1 0 01-2 0zM156 269a1 1 0 112 0 1 1 0 01-2 0zM156 295a1 1 0 112 0 1 1 0 01-2 0zM156 321a1 1 0 112 0 1 1 0 01-2 0zM156 347a1 1 0 112 0 1 1 0 01-2 0zM156 373a1 1 0 112 0 1 1 0 01-2 0zM156 399a1 1 0 112 0 1 1 0 01-2 0zM156 425a1 1 0 112 0 1 1 0 01-2 0zM156 451a1 1 0 112 0 1 1 0 01-2 0zM156 477a1 1 0 112 0 1 1 0 01-2 0zM156 503a1 1 0 112 0 1 1 0 01-2 0zM156 529a1 1 0 112 0 1 1 0 01-2 0zM156 555a1 1 0 112 0 1 1 0 01-2 0zM156 581a1 1 0 112 0 1 1 0 01-2 0zM156 607a1 1 0 112 0 1 1 0 01-2 0zM156 633a1 1 0 112 0 1 1 0 01-2 0zM156 659a1 1 0 112 0 1 1 0 01-2 0zM156 685a1 1 0 112 0 1 1 0 01-2 0zM156 711a1 1 0 112 0 1 1 0 01-2 0zM156 737a1 1 0 112 0 1 1 0 01-2 0zM156 763a1 1 0 112 0 1 1 0 01-2 0zM156 789a1 1 0 112 0 1 1 0 01-2 0zM156 815a1 1 0 112 0 1 1 0 01-2 0zM156 841a1 1 0 112 0 1 1 0 01-2 0zM156 867a1 1 0 112 0 1 1 0 01-2 0zM182-225a1 1 0 112 0 1 1 0 01-2 0zM182-199a1 1 0 112 0 1 1 0 01-2 0zM182-173a1 1 0 112 0 1 1 0 01-2 0zM182-147a1 1 0 112 0 1 1 0 01-2 0zM182-121a1 1 0 112 0 1 1 0 01-2 0zM182-95a1 1 0 112 0 1 1 0 01-2 0zM182-69a1 1 0 112 0 1 1 0 01-2 0zM182-43a1 1 0 112 0 1 1 0 01-2 0zM182-17a1 1 0 112 0 1 1 0 01-2 0zM182 9a1 1 0 112 0 1 1 0 01-2 0zM182 35a1 1 0 112 0 1 1 0 01-2 0zM182 61a1 1 0 112 0 1 1 0 01-2 0zM182 87a1 1 0 112 0 1 1 0 01-2 0zM182 113a1 1 0 112 0 1 1 0 01-2 0zM182 139a1 1 0 112 0 1 1 0 01-2 0zM182 165a1 1 0 112 0 1 1 0 01-2 0zM182 191a1 1 0 112 0 1 1 0 01-2 0zM182 217a1 1 0 112 0 1 1 0 01-2 0zM182 243a1 1 0 112 0 1 1 0 01-2 0zM182 269a1 1 0 112 0 1 1 0 01-2 0zM182 295a1 1 0 112 0 1 1 0 01-2 0zM182 321a1 1 0 112 0 1 1 0 01-2 0zM182 347a1 1 0 112 0 1 1 0 01-2 0zM182 373a1 1 0 112 0 1 1 0 01-2 0zM182 399a1 1 0 112 0 1 1 0 01-2 0zM182 425a1 1 0 112 0 1 1 0 01-2 0zM182 451a1 1 0 112 0 1 1 0 01-2 0zM182 477a1 1 0 112 0 1 1 0 01-2 0zM182 503a1 1 0 112 0 1 1 0 01-2 0zM182 529a1 1 0 112 0 1 1 0 01-2 0zM182 555a1 1 0 112 0 1 1 0 01-2 0zM182 581a1 1 0 112 0 1 1 0 01-2 0zM182 607a1 1 0 112 0 1 1 0 01-2 0zM182 633a1 1 0 112 0 1 1 0 01-2 0zM182 659a1 1 0 112 0 1 1 0 01-2 0zM182 685a1 1 0 112 0 1 1 0 01-2 0zM182 711a1 1 0 112 0 1 1 0 01-2 0zM182 737a1 1 0 112 0 1 1 0 01-2 0zM182 763a1 1 0 112 0 1 1 0 01-2 0zM182 789a1 1 0 112 0 1 1 0 01-2 0zM182 815a1 1 0 112 0 1 1 0 01-2 0zM182 841a1 1 0 112 0 1 1 0 01-2 0zM182 867a1 1 0 112 0 1 1 0 01-2 0zM208-225a1 1 0 112 0 1 1 0 01-2 0zM208-199a1 1 0 112 0 1 1 0 01-2 0zM208-173a1 1 0 112 0 1 1 0 01-2 0zM208-147a1 1 0 112 0 1 1 0 01-2 0zM208-121a1 1 0 112 0 1 1 0 01-2 0zM208-95a1 1 0 112 0 1 1 0 01-2 0zM208-69a1 1 0 112 0 1 1 0 01-2 0zM208-43a1 1 0 112 0 1 1 0 01-2 0zM208-17a1 1 0 112 0 1 1 0 01-2 0zM208 9a1 1 0 112 0 1 1 0 01-2 0zM208 35a1 1 0 112 0 1 1 0 01-2 0zM208 61a1 1 0 112 0 1 1 0 01-2 0zM208 87a1 1 0 112 0 1 1 0 01-2 0zM208 113a1 1 0 112 0 1 1 0 01-2 0zM208 139a1 1 0 112 0 1 1 0 01-2 0zM208 165a1 1 0 112 0 1 1 0 01-2 0zM208 191a1 1 0 112 0 1 1 0 01-2 0zM208 217a1 1 0 112 0 1 1 0 01-2 0zM208 243a1 1 0 112 0 1 1 0 01-2 0zM208 269a1 1 0 112 0 1 1 0 01-2 0zM208 295a1 1 0 112 0 1 1 0 01-2 0zM208 321a1 1 0 112 0 1 1 0 01-2 0zM208 347a1 1 0 112 0 1 1 0 01-2 0zM208 373a1 1 0 112 0 1 1 0 01-2 0zM208 399a1 1 0 112 0 1 1 0 01-2 0zM208 425a1 1 0 112 0 1 1 0 01-2 0zM208 451a1 1 0 112 0 1 1 0 01-2 0zM208 477a1 1 0 112 0 1 1 0 01-2 0zM208 503a1 1 0 112 0 1 1 0 01-2 0zM208 529a1 1 0 112 0 1 1 0 01-2 0zM208 555a1 1 0 112 0 1 1 0 01-2 0zM208 581a1 1 0 112 0 1 1 0 01-2 0zM208 607a1 1 0 112 0 1 1 0 01-2 0zM208 633a1 1 0 112 0 1 1 0 01-2 0zM208 659a1 1 0 112 0 1 1 0 01-2 0zM208 685a1 1 0 112 0 1 1 0 01-2 0zM208 711a1 1 0 112 0 1 1 0 01-2 0zM208 737a1 1 0 112 0 1 1 0 01-2 0zM208 763a1 1 0 112 0 1 1 0 01-2 0zM208 789a1 1 0 112 0 1 1 0 01-2 0zM208 815a1 1 0 112 0 1 1 0 01-2 0zM208 841a1 1 0 112 0 1 1 0 01-2 0zM208 867a1 1 0 112 0 1 1 0 01-2 0zM234-225a1 1 0 112 0 1 1 0 01-2 0zM234-199a1 1 0 112 0 1 1 0 01-2 0zM234-173a1 1 0 112 0 1 1 0 01-2 0zM234-147a1 1 0 112 0 1 1 0 01-2 0zM234-121a1 1 0 112 0 1 1 0 01-2 0zM234-95a1 1 0 112 0 1 1 0 01-2 0zM234-69a1 1 0 112 0 1 1 0 01-2 0zM234-43a1 1 0 112 0 1 1 0 01-2 0zM234-17a1 1 0 112 0 1 1 0 01-2 0zM234 9a1 1 0 112 0 1 1 0 01-2 0zM234 35a1 1 0 112 0 1 1 0 01-2 0zM234 61a1 1 0 112 0 1 1 0 01-2 0zM234 87a1 1 0 112 0 1 1 0 01-2 0zM234 113a1 1 0 112 0 1 1 0 01-2 0zM234 139a1 1 0 112 0 1 1 0 01-2 0zM234 165a1 1 0 112 0 1 1 0 01-2 0zM234 191a1 1 0 112 0 1 1 0 01-2 0zM234 217a1 1 0 112 0 1 1 0 01-2 0zM234 243a1 1 0 112 0 1 1 0 01-2 0zM234 269a1 1 0 112 0 1 1 0 01-2 0zM234 295a1 1 0 112 0 1 1 0 01-2 0zM234 321a1 1 0 112 0 1 1 0 01-2 0zM234 347a1 1 0 112 0 1 1 0 01-2 0zM234 373a1 1 0 112 0 1 1 0 01-2 0zM234 399a1 1 0 112 0 1 1 0 01-2 0zM234 425a1 1 0 112 0 1 1 0 01-2 0zM234 451a1 1 0 112 0 1 1 0 01-2 0zM234 477a1 1 0 112 0 1 1 0 01-2 0zM234 503a1 1 0 112 0 1 1 0 01-2 0zM234 529a1 1 0 112 0 1 1 0 01-2 0zM234 555a1 1 0 112 0 1 1 0 01-2 0zM234 581a1 1 0 112 0 1 1 0 01-2 0zM234 607a1 1 0 112 0 1 1 0 01-2 0zM234 633a1 1 0 112 0 1 1 0 01-2 0zM234 659a1 1 0 112 0 1 1 0 01-2 0zM234 685a1 1 0 112 0 1 1 0 01-2 0zM234 711a1 1 0 112 0 1 1 0 01-2 0zM234 737a1 1 0 112 0 1 1 0 01-2 0zM234 763a1 1 0 112 0 1 1 0 01-2 0zM234 789a1 1 0 112 0 1 1 0 01-2 0zM234 815a1 1 0 112 0 1 1 0 01-2 0zM234 841a1 1 0 112 0 1 1 0 01-2 0zM234 867a1 1 0 112 0 1 1 0 01-2 0zM260-225a1 1 0 112 0 1 1 0 01-2 0zM260-199a1 1 0 112 0 1 1 0 01-2 0zM260-173a1 1 0 112 0 1 1 0 01-2 0zM260-147a1 1 0 112 0 1 1 0 01-2 0zM260-121a1 1 0 112 0 1 1 0 01-2 0zM260-95a1 1 0 112 0 1 1 0 01-2 0zM260-69a1 1 0 112 0 1 1 0 01-2 0zM260-43a1 1 0 112 0 1 1 0 01-2 0zM260-17a1 1 0 112 0 1 1 0 01-2 0zM260 9a1 1 0 112 0 1 1 0 01-2 0zM260 35a1 1 0 112 0 1 1 0 01-2 0zM260 61a1 1 0 112 0 1 1 0 01-2 0zM260 87a1 1 0 112 0 1 1 0 01-2 0zM260 113a1 1 0 112 0 1 1 0 01-2 0zM260 139a1 1 0 112 0 1 1 0 01-2 0zM260 165a1 1 0 112 0 1 1 0 01-2 0zM260 191a1 1 0 112 0 1 1 0 01-2 0zM260 217a1 1 0 112 0 1 1 0 01-2 0zM260 243a1 1 0 112 0 1 1 0 01-2 0zM260 269a1 1 0 112 0 1 1 0 01-2 0zM260 295a1 1 0 112 0 1 1 0 01-2 0zM260 321a1 1 0 112 0 1 1 0 01-2 0zM260 347a1 1 0 112 0 1 1 0 01-2 0zM260 373a1 1 0 112 0 1 1 0 01-2 0zM260 399a1 1 0 112 0 1 1 0 01-2 0zM260 425a1 1 0 112 0 1 1 0 01-2 0zM260 451a1 1 0 112 0 1 1 0 01-2 0zM260 477a1 1 0 112 0 1 1 0 01-2 0zM260 503a1 1 0 112 0 1 1 0 01-2 0zM260 529a1 1 0 112 0 1 1 0 01-2 0zM260 555a1 1 0 112 0 1 1 0 01-2 0zM260 581a1 1 0 112 0 1 1 0 01-2 0zM260 607a1 1 0 112 0 1 1 0 01-2 0zM260 633a1 1 0 112 0 1 1 0 01-2 0zM260 659a1 1 0 112 0 1 1 0 01-2 0zM260 685a1 1 0 112 0 1 1 0 01-2 0zM260 711a1 1 0 112 0 1 1 0 01-2 0zM260 737a1 1 0 112 0 1 1 0 01-2 0zM260 763a1 1 0 112 0 1 1 0 01-2 0zM260 789a1 1 0 112 0 1 1 0 01-2 0zM260 815a1 1 0 112 0 1 1 0 01-2 0zM260 841a1 1 0 112 0 1 1 0 01-2 0zM260 867a1 1 0 112 0 1 1 0 01-2 0zM286-225a1 1 0 112 0 1 1 0 01-2 0zM286-199a1 1 0 112 0 1 1 0 01-2 0zM286-173a1 1 0 112 0 1 1 0 01-2 0zM286-147a1 1 0 112 0 1 1 0 01-2 0zM286-121a1 1 0 112 0 1 1 0 01-2 0zM286-95a1 1 0 112 0 1 1 0 01-2 0zM286-69a1 1 0 112 0 1 1 0 01-2 0zM286-43a1 1 0 112 0 1 1 0 01-2 0zM286-17a1 1 0 112 0 1 1 0 01-2 0zM286 9a1 1 0 112 0 1 1 0 01-2 0zM286 35a1 1 0 112 0 1 1 0 01-2 0zM286 61a1 1 0 112 0 1 1 0 01-2 0zM286 87a1 1 0 112 0 1 1 0 01-2 0zM286 113a1 1 0 112 0 1 1 0 01-2 0zM286 139a1 1 0 112 0 1 1 0 01-2 0zM286 165a1 1 0 112 0 1 1 0 01-2 0zM286 191a1 1 0 112 0 1 1 0 01-2 0zM286 217a1 1 0 112 0 1 1 0 01-2 0zM286 243a1 1 0 112 0 1 1 0 01-2 0zM286 269a1 1 0 112 0 1 1 0 01-2 0zM286 295a1 1 0 112 0 1 1 0 01-2 0zM286 321a1 1 0 112 0 1 1 0 01-2 0zM286 347a1 1 0 112 0 1 1 0 01-2 0zM286 373a1 1 0 112 0 1 1 0 01-2 0zM286 399a1 1 0 112 0 1 1 0 01-2 0zM286 425a1 1 0 112 0 1 1 0 01-2 0zM286 451a1 1 0 112 0 1 1 0 01-2 0zM286 477a1 1 0 112 0 1 1 0 01-2 0zM286 503a1 1 0 112 0 1 1 0 01-2 0zM286 529a1 1 0 112 0 1 1 0 01-2 0zM286 555a1 1 0 112 0 1 1 0 01-2 0zM286 581a1 1 0 112 0 1 1 0 01-2 0zM286 607a1 1 0 112 0 1 1 0 01-2 0zM286 633a1 1 0 112 0 1 1 0 01-2 0zM286 659a1 1 0 112 0 1 1 0 01-2 0zM286 685a1 1 0 112 0 1 1 0 01-2 0zM286 711a1 1 0 112 0 1 1 0 01-2 0zM286 737a1 1 0 112 0 1 1 0 01-2 0zM286 763a1 1 0 112 0 1 1 0 01-2 0zM286 789a1 1 0 112 0 1 1 0 01-2 0zM286 815a1 1 0 112 0 1 1 0 01-2 0zM286 841a1 1 0 112 0 1 1 0 01-2 0zM286 867a1 1 0 112 0 1 1 0 01-2 0zM312-225a1 1 0 112 0 1 1 0 01-2 0zM312-199a1 1 0 112 0 1 1 0 01-2 0zM312-173a1 1 0 112 0 1 1 0 01-2 0zM312-147a1 1 0 112 0 1 1 0 01-2 0zM312-121a1 1 0 112 0 1 1 0 01-2 0zM312-95a1 1 0 112 0 1 1 0 01-2 0zM312-69a1 1 0 112 0 1 1 0 01-2 0zM312-43a1 1 0 112 0 1 1 0 01-2 0zM312-17a1 1 0 112 0 1 1 0 01-2 0zM312 9a1 1 0 112 0 1 1 0 01-2 0zM312 35a1 1 0 112 0 1 1 0 01-2 0zM312 61a1 1 0 112 0 1 1 0 01-2 0zM312 87a1 1 0 112 0 1 1 0 01-2 0zM312 113a1 1 0 112 0 1 1 0 01-2 0zM312 139a1 1 0 112 0 1 1 0 01-2 0zM312 165a1 1 0 112 0 1 1 0 01-2 0zM312 191a1 1 0 112 0 1 1 0 01-2 0zM312 217a1 1 0 112 0 1 1 0 01-2 0zM312 243a1 1 0 112 0 1 1 0 01-2 0zM312 269a1 1 0 112 0 1 1 0 01-2 0zM312 295a1 1 0 112 0 1 1 0 01-2 0zM312 321a1 1 0 112 0 1 1 0 01-2 0zM312 347a1 1 0 112 0 1 1 0 01-2 0zM312 373a1 1 0 112 0 1 1 0 01-2 0zM312 399a1 1 0 112 0 1 1 0 01-2 0zM312 425a1 1 0 112 0 1 1 0 01-2 0zM312 451a1 1 0 112 0 1 1 0 01-2 0zM312 477a1 1 0 112 0 1 1 0 01-2 0zM312 503a1 1 0 112 0 1 1 0 01-2 0zM312 529a1 1 0 112 0 1 1 0 01-2 0zM312 555a1 1 0 112 0 1 1 0 01-2 0zM312 581a1 1 0 112 0 1 1 0 01-2 0zM312 607a1 1 0 112 0 1 1 0 01-2 0zM312 633a1 1 0 112 0 1 1 0 01-2 0zM312 659a1 1 0 112 0 1 1 0 01-2 0zM312 685a1 1 0 112 0 1 1 0 01-2 0zM312 711a1 1 0 112 0 1 1 0 01-2 0zM312 737a1 1 0 112 0 1 1 0 01-2 0zM312 763a1 1 0 112 0 1 1 0 01-2 0zM312 789a1 1 0 112 0 1 1 0 01-2 0zM312 815a1 1 0 112 0 1 1 0 01-2 0zM312 841a1 1 0 112 0 1 1 0 01-2 0zM312 867a1 1 0 112 0 1 1 0 01-2 0zM338-225a1 1 0 112 0 1 1 0 01-2 0zM338-199a1 1 0 112 0 1 1 0 01-2 0zM338-173a1 1 0 112 0 1 1 0 01-2 0zM338-147a1 1 0 112 0 1 1 0 01-2 0zM338-121a1 1 0 112 0 1 1 0 01-2 0zM338-95a1 1 0 112 0 1 1 0 01-2 0zM338-69a1 1 0 112 0 1 1 0 01-2 0zM338-43a1 1 0 112 0 1 1 0 01-2 0zM338-17a1 1 0 112 0 1 1 0 01-2 0zM338 9a1 1 0 112 0 1 1 0 01-2 0zM338 35a1 1 0 112 0 1 1 0 01-2 0zM338 61a1 1 0 112 0 1 1 0 01-2 0zM338 87a1 1 0 112 0 1 1 0 01-2 0zM338 113a1 1 0 112 0 1 1 0 01-2 0zM338 139a1 1 0 112 0 1 1 0 01-2 0zM338 165a1 1 0 112 0 1 1 0 01-2 0zM338 191a1 1 0 112 0 1 1 0 01-2 0zM338 217a1 1 0 112 0 1 1 0 01-2 0zM338 243a1 1 0 112 0 1 1 0 01-2 0zM338 269a1 1 0 112 0 1 1 0 01-2 0zM338 295a1 1 0 112 0 1 1 0 01-2 0zM338 321a1 1 0 112 0 1 1 0 01-2 0zM338 347a1 1 0 112 0 1 1 0 01-2 0zM338 373a1 1 0 112 0 1 1 0 01-2 0zM338 399a1 1 0 112 0 1 1 0 01-2 0zM338 425a1 1 0 112 0 1 1 0 01-2 0zM338 451a1 1 0 112 0 1 1 0 01-2 0zM338 477a1 1 0 112 0 1 1 0 01-2 0zM338 503a1 1 0 112 0 1 1 0 01-2 0zM338 529a1 1 0 112 0 1 1 0 01-2 0zM338 555a1 1 0 112 0 1 1 0 01-2 0zM338 581a1 1 0 112 0 1 1 0 01-2 0zM338 607a1 1 0 112 0 1 1 0 01-2 0zM338 633a1 1 0 112 0 1 1 0 01-2 0zM338 659a1 1 0 112 0 1 1 0 01-2 0zM338 685a1 1 0 112 0 1 1 0 01-2 0zM338 711a1 1 0 112 0 1 1 0 01-2 0zM338 737a1 1 0 112 0 1 1 0 01-2 0zM338 763a1 1 0 112 0 1 1 0 01-2 0zM338 789a1 1 0 112 0 1 1 0 01-2 0zM338 815a1 1 0 112 0 1 1 0 01-2 0zM338 841a1 1 0 112 0 1 1 0 01-2 0zM338 867a1 1 0 112 0 1 1 0 01-2 0zM364-225a1 1 0 112 0 1 1 0 01-2 0zM364-199a1 1 0 112 0 1 1 0 01-2 0zM364-173a1 1 0 112 0 1 1 0 01-2 0zM364-147a1 1 0 112 0 1 1 0 01-2 0zM364-121a1 1 0 112 0 1 1 0 01-2 0zM364-95a1 1 0 112 0 1 1 0 01-2 0zM364-69a1 1 0 112 0 1 1 0 01-2 0zM364-43a1 1 0 112 0 1 1 0 01-2 0zM364-17a1 1 0 112 0 1 1 0 01-2 0zM364 9a1 1 0 112 0 1 1 0 01-2 0zM364 35a1 1 0 112 0 1 1 0 01-2 0zM364 61a1 1 0 112 0 1 1 0 01-2 0zM364 87a1 1 0 112 0 1 1 0 01-2 0zM364 113a1 1 0 112 0 1 1 0 01-2 0zM364 139a1 1 0 112 0 1 1 0 01-2 0zM364 165a1 1 0 112 0 1 1 0 01-2 0zM364 191a1 1 0 112 0 1 1 0 01-2 0zM364 217a1 1 0 112 0 1 1 0 01-2 0zM364 243a1 1 0 112 0 1 1 0 01-2 0zM364 269a1 1 0 112 0 1 1 0 01-2 0zM364 295a1 1 0 112 0 1 1 0 01-2 0zM364 321a1 1 0 112 0 1 1 0 01-2 0zM364 347a1 1 0 112 0 1 1 0 01-2 0zM364 373a1 1 0 112 0 1 1 0 01-2 0zM364 399a1 1 0 112 0 1 1 0 01-2 0zM364 425a1 1 0 112 0 1 1 0 01-2 0zM364 451a1 1 0 112 0 1 1 0 01-2 0zM364 477a1 1 0 112 0 1 1 0 01-2 0zM364 503a1 1 0 112 0 1 1 0 01-2 0zM364 529a1 1 0 112 0 1 1 0 01-2 0zM364 555a1 1 0 112 0 1 1 0 01-2 0zM364 581a1 1 0 112 0 1 1 0 01-2 0zM364 607a1 1 0 112 0 1 1 0 01-2 0zM364 633a1 1 0 112 0 1 1 0 01-2 0zM364 659a1 1 0 112 0 1 1 0 01-2 0zM364 685a1 1 0 112 0 1 1 0 01-2 0zM364 711a1 1 0 112 0 1 1 0 01-2 0zM364 737a1 1 0 112 0 1 1 0 01-2 0zM364 763a1 1 0 112 0 1 1 0 01-2 0zM364 789a1 1 0 112 0 1 1 0 01-2 0zM364 815a1 1 0 112 0 1 1 0 01-2 0zM364 841a1 1 0 112 0 1 1 0 01-2 0zM364 867a1 1 0 112 0 1 1 0 01-2 0zM390-225a1 1 0 112 0 1 1 0 01-2 0zM390-199a1 1 0 112 0 1 1 0 01-2 0zM390-173a1 1 0 112 0 1 1 0 01-2 0zM390-147a1 1 0 112 0 1 1 0 01-2 0zM390-121a1 1 0 112 0 1 1 0 01-2 0zM390-95a1 1 0 112 0 1 1 0 01-2 0zM390-69a1 1 0 112 0 1 1 0 01-2 0zM390-43a1 1 0 112 0 1 1 0 01-2 0zM390-17a1 1 0 112 0 1 1 0 01-2 0zM390 9a1 1 0 112 0 1 1 0 01-2 0zM390 35a1 1 0 112 0 1 1 0 01-2 0zM390 61a1 1 0 112 0 1 1 0 01-2 0zM390 87a1 1 0 112 0 1 1 0 01-2 0zM390 113a1 1 0 112 0 1 1 0 01-2 0zM390 139a1 1 0 112 0 1 1 0 01-2 0zM390 165a1 1 0 112 0 1 1 0 01-2 0zM390 191a1 1 0 112 0 1 1 0 01-2 0zM390 217a1 1 0 112 0 1 1 0 01-2 0zM390 243a1 1 0 112 0 1 1 0 01-2 0zM390 269a1 1 0 112 0 1 1 0 01-2 0zM390 295a1 1 0 112 0 1 1 0 01-2 0zM390 321a1 1 0 112 0 1 1 0 01-2 0zM390 347a1 1 0 112 0 1 1 0 01-2 0zM390 373a1 1 0 112 0 1 1 0 01-2 0zM390 399a1 1 0 112 0 1 1 0 01-2 0zM390 425a1 1 0 112 0 1 1 0 01-2 0zM390 451a1 1 0 112 0 1 1 0 01-2 0zM390 477a1 1 0 112 0 1 1 0 01-2 0zM390 503a1 1 0 112 0 1 1 0 01-2 0zM390 529a1 1 0 112 0 1 1 0 01-2 0zM390 555a1 1 0 112 0 1 1 0 01-2 0zM390 581a1 1 0 112 0 1 1 0 01-2 0zM390 607a1 1 0 112 0 1 1 0 01-2 0zM390 633a1 1 0 112 0 1 1 0 01-2 0zM390 659a1 1 0 112 0 1 1 0 01-2 0zM390 685a1 1 0 112 0 1 1 0 01-2 0zM390 711a1 1 0 112 0 1 1 0 01-2 0zM390 737a1 1 0 112 0 1 1 0 01-2 0zM390 763a1 1 0 112 0 1 1 0 01-2 0zM390 789a1 1 0 112 0 1 1 0 01-2 0zM390 815a1 1 0 112 0 1 1 0 01-2 0zM390 841a1 1 0 112 0 1 1 0 01-2 0zM390 867a1 1 0 112 0 1 1 0 01-2 0zM416-225a1 1 0 112 0 1 1 0 01-2 0zM416-199a1 1 0 112 0 1 1 0 01-2 0zM416-173a1 1 0 112 0 1 1 0 01-2 0zM416-147a1 1 0 112 0 1 1 0 01-2 0zM416-121a1 1 0 112 0 1 1 0 01-2 0zM416-95a1 1 0 112 0 1 1 0 01-2 0zM416-69a1 1 0 112 0 1 1 0 01-2 0zM416-43a1 1 0 112 0 1 1 0 01-2 0zM416-17a1 1 0 112 0 1 1 0 01-2 0zM416 9a1 1 0 112 0 1 1 0 01-2 0zM416 35a1 1 0 112 0 1 1 0 01-2 0zM416 61a1 1 0 112 0 1 1 0 01-2 0zM416 87a1 1 0 112 0 1 1 0 01-2 0zM416 113a1 1 0 112 0 1 1 0 01-2 0zM416 139a1 1 0 112 0 1 1 0 01-2 0zM416 165a1 1 0 112 0 1 1 0 01-2 0zM416 191a1 1 0 112 0 1 1 0 01-2 0zM416 217a1 1 0 112 0 1 1 0 01-2 0zM416 243a1 1 0 112 0 1 1 0 01-2 0zM416 269a1 1 0 112 0 1 1 0 01-2 0zM416 295a1 1 0 112 0 1 1 0 01-2 0zM416 321a1 1 0 112 0 1 1 0 01-2 0zM416 347a1 1 0 112 0 1 1 0 01-2 0zM416 373a1 1 0 112 0 1 1 0 01-2 0zM416 399a1 1 0 112 0 1 1 0 01-2 0zM416 425a1 1 0 112 0 1 1 0 01-2 0zM416 451a1 1 0 112 0 1 1 0 01-2 0zM416 477a1 1 0 112 0 1 1 0 01-2 0zM416 503a1 1 0 112 0 1 1 0 01-2 0zM416 529a1 1 0 112 0 1 1 0 01-2 0zM416 555a1 1 0 112 0 1 1 0 01-2 0zM416 581a1 1 0 112 0 1 1 0 01-2 0zM416 607a1 1 0 112 0 1 1 0 01-2 0zM416 633a1 1 0 112 0 1 1 0 01-2 0zM416 659a1 1 0 112 0 1 1 0 01-2 0zM416 685a1 1 0 112 0 1 1 0 01-2 0zM416 711a1 1 0 112 0 1 1 0 01-2 0zM416 737a1 1 0 112 0 1 1 0 01-2 0zM416 763a1 1 0 112 0 1 1 0 01-2 0zM416 789a1 1 0 112 0 1 1 0 01-2 0zM416 815a1 1 0 112 0 1 1 0 01-2 0zM416 841a1 1 0 112 0 1 1 0 01-2 0zM416 867a1 1 0 112 0 1 1 0 01-2 0zM442-225a1 1 0 112 0 1 1 0 01-2 0zM442-199a1 1 0 112 0 1 1 0 01-2 0zM442-173a1 1 0 112 0 1 1 0 01-2 0zM442-147a1 1 0 112 0 1 1 0 01-2 0zM442-121a1 1 0 112 0 1 1 0 01-2 0zM442-95a1 1 0 112 0 1 1 0 01-2 0zM442-69a1 1 0 112 0 1 1 0 01-2 0zM442-43a1 1 0 112 0 1 1 0 01-2 0zM442-17a1 1 0 112 0 1 1 0 01-2 0zM442 9a1 1 0 112 0 1 1 0 01-2 0zM442 35a1 1 0 112 0 1 1 0 01-2 0zM442 61a1 1 0 112 0 1 1 0 01-2 0zM442 87a1 1 0 112 0 1 1 0 01-2 0zM442 113a1 1 0 112 0 1 1 0 01-2 0zM442 139a1 1 0 112 0 1 1 0 01-2 0zM442 165a1 1 0 112 0 1 1 0 01-2 0zM442 191a1 1 0 112 0 1 1 0 01-2 0zM442 217a1 1 0 112 0 1 1 0 01-2 0zM442 243a1 1 0 112 0 1 1 0 01-2 0zM442 269a1 1 0 112 0 1 1 0 01-2 0zM442 295a1 1 0 112 0 1 1 0 01-2 0zM442 321a1 1 0 112 0 1 1 0 01-2 0zM442 347a1 1 0 112 0 1 1 0 01-2 0zM442 373a1 1 0 112 0 1 1 0 01-2 0zM442 399a1 1 0 112 0 1 1 0 01-2 0zM442 425a1 1 0 112 0 1 1 0 01-2 0zM442 451a1 1 0 112 0 1 1 0 01-2 0zM442 477a1 1 0 112 0 1 1 0 01-2 0zM442 503a1 1 0 112 0 1 1 0 01-2 0zM442 529a1 1 0 112 0 1 1 0 01-2 0zM442 555a1 1 0 112 0 1 1 0 01-2 0zM442 581a1 1 0 112 0 1 1 0 01-2 0zM442 607a1 1 0 112 0 1 1 0 01-2 0zM442 633a1 1 0 112 0 1 1 0 01-2 0zM442 659a1 1 0 112 0 1 1 0 01-2 0zM442 685a1 1 0 112 0 1 1 0 01-2 0zM442 711a1 1 0 112 0 1 1 0 01-2 0zM442 737a1 1 0 112 0 1 1 0 01-2 0zM442 763a1 1 0 112 0 1 1 0 01-2 0zM442 789a1 1 0 112 0 1 1 0 01-2 0zM442 815a1 1 0 112 0 1 1 0 01-2 0zM442 841a1 1 0 112 0 1 1 0 01-2 0zM442 867a1 1 0 112 0 1 1 0 01-2 0zM468-225a1 1 0 112 0 1 1 0 01-2 0zM468-199a1 1 0 112 0 1 1 0 01-2 0zM468-173a1 1 0 112 0 1 1 0 01-2 0zM468-147a1 1 0 112 0 1 1 0 01-2 0zM468-121a1 1 0 112 0 1 1 0 01-2 0zM468-95a1 1 0 112 0 1 1 0 01-2 0zM468-69a1 1 0 112 0 1 1 0 01-2 0zM468-43a1 1 0 112 0 1 1 0 01-2 0zM468-17a1 1 0 112 0 1 1 0 01-2 0zM468 9a1 1 0 112 0 1 1 0 01-2 0zM468 35a1 1 0 112 0 1 1 0 01-2 0zM468 61a1 1 0 112 0 1 1 0 01-2 0zM468 87a1 1 0 112 0 1 1 0 01-2 0zM468 113a1 1 0 112 0 1 1 0 01-2 0zM468 139a1 1 0 112 0 1 1 0 01-2 0zM468 165a1 1 0 112 0 1 1 0 01-2 0zM468 191a1 1 0 112 0 1 1 0 01-2 0zM468 217a1 1 0 112 0 1 1 0 01-2 0zM468 243a1 1 0 112 0 1 1 0 01-2 0zM468 269a1 1 0 112 0 1 1 0 01-2 0zM468 295a1 1 0 112 0 1 1 0 01-2 0zM468 321a1 1 0 112 0 1 1 0 01-2 0zM468 347a1 1 0 112 0 1 1 0 01-2 0zM468 373a1 1 0 112 0 1 1 0 01-2 0zM468 399a1 1 0 112 0 1 1 0 01-2 0zM468 425a1 1 0 112 0 1 1 0 01-2 0zM468 451a1 1 0 112 0 1 1 0 01-2 0zM468 477a1 1 0 112 0 1 1 0 01-2 0zM468 503a1 1 0 112 0 1 1 0 01-2 0zM468 529a1 1 0 112 0 1 1 0 01-2 0zM468 555a1 1 0 112 0 1 1 0 01-2 0zM468 581a1 1 0 112 0 1 1 0 01-2 0zM468 607a1 1 0 112 0 1 1 0 01-2 0zM468 633a1 1 0 112 0 1 1 0 01-2 0zM468 659a1 1 0 112 0 1 1 0 01-2 0zM468 685a1 1 0 112 0 1 1 0 01-2 0zM468 711a1 1 0 112 0 1 1 0 01-2 0zM468 737a1 1 0 112 0 1 1 0 01-2 0zM468 763a1 1 0 112 0 1 1 0 01-2 0zM468 789a1 1 0 112 0 1 1 0 01-2 0zM468 815a1 1 0 112 0 1 1 0 01-2 0zM468 841a1 1 0 112 0 1 1 0 01-2 0zM468 867a1 1 0 112 0 1 1 0 01-2 0zM494-225a1 1 0 112 0 1 1 0 01-2 0zM494-199a1 1 0 112 0 1 1 0 01-2 0zM494-173a1 1 0 112 0 1 1 0 01-2 0zM494-147a1 1 0 112 0 1 1 0 01-2 0zM494-121a1 1 0 112 0 1 1 0 01-2 0zM494-95a1 1 0 112 0 1 1 0 01-2 0zM494-69a1 1 0 112 0 1 1 0 01-2 0zM494-43a1 1 0 112 0 1 1 0 01-2 0zM494-17a1 1 0 112 0 1 1 0 01-2 0zM494 9a1 1 0 112 0 1 1 0 01-2 0zM494 35a1 1 0 112 0 1 1 0 01-2 0zM494 61a1 1 0 112 0 1 1 0 01-2 0zM494 87a1 1 0 112 0 1 1 0 01-2 0zM494 113a1 1 0 112 0 1 1 0 01-2 0zM494 139a1 1 0 112 0 1 1 0 01-2 0zM494 165a1 1 0 112 0 1 1 0 01-2 0zM494 191a1 1 0 112 0 1 1 0 01-2 0zM494 217a1 1 0 112 0 1 1 0 01-2 0zM494 243a1 1 0 112 0 1 1 0 01-2 0zM494 269a1 1 0 112 0 1 1 0 01-2 0zM494 295a1 1 0 112 0 1 1 0 01-2 0zM494 321a1 1 0 112 0 1 1 0 01-2 0zM494 347a1 1 0 112 0 1 1 0 01-2 0zM494 373a1 1 0 112 0 1 1 0 01-2 0zM494 399a1 1 0 112 0 1 1 0 01-2 0zM494 425a1 1 0 112 0 1 1 0 01-2 0zM494 451a1 1 0 112 0 1 1 0 01-2 0zM494 477a1 1 0 112 0 1 1 0 01-2 0zM494 503a1 1 0 112 0 1 1 0 01-2 0zM494 529a1 1 0 112 0 1 1 0 01-2 0zM494 555a1 1 0 112 0 1 1 0 01-2 0zM494 581a1 1 0 112 0 1 1 0 01-2 0zM494 607a1 1 0 112 0 1 1 0 01-2 0zM494 633a1 1 0 112 0 1 1 0 01-2 0zM494 659a1 1 0 112 0 1 1 0 01-2 0zM494 685a1 1 0 112 0 1 1 0 01-2 0zM494 711a1 1 0 112 0 1 1 0 01-2 0zM494 737a1 1 0 112 0 1 1 0 01-2 0zM494 763a1 1 0 112 0 1 1 0 01-2 0zM494 789a1 1 0 112 0 1 1 0 01-2 0zM494 815a1 1 0 112 0 1 1 0 01-2 0zM494 841a1 1 0 112 0 1 1 0 01-2 0zM494 867a1 1 0 112 0 1 1 0 01-2 0zM520-225a1 1 0 112 0 1 1 0 01-2 0zM520-199a1 1 0 112 0 1 1 0 01-2 0zM520-173a1 1 0 112 0 1 1 0 01-2 0zM520-147a1 1 0 112 0 1 1 0 01-2 0zM520-121a1 1 0 112 0 1 1 0 01-2 0zM520-95a1 1 0 112 0 1 1 0 01-2 0zM520-69a1 1 0 112 0 1 1 0 01-2 0zM520-43a1 1 0 112 0 1 1 0 01-2 0zM520-17a1 1 0 112 0 1 1 0 01-2 0zM520 9a1 1 0 112 0 1 1 0 01-2 0zM520 35a1 1 0 112 0 1 1 0 01-2 0zM520 61a1 1 0 112 0 1 1 0 01-2 0zM520 87a1 1 0 112 0 1 1 0 01-2 0zM520 113a1 1 0 112 0 1 1 0 01-2 0zM520 139a1 1 0 112 0 1 1 0 01-2 0zM520 165a1 1 0 112 0 1 1 0 01-2 0zM520 191a1 1 0 112 0 1 1 0 01-2 0zM520 217a1 1 0 112 0 1 1 0 01-2 0zM520 243a1 1 0 112 0 1 1 0 01-2 0zM520 269a1 1 0 112 0 1 1 0 01-2 0zM520 295a1 1 0 112 0 1 1 0 01-2 0zM520 321a1 1 0 112 0 1 1 0 01-2 0zM520 347a1 1 0 112 0 1 1 0 01-2 0zM520 373a1 1 0 112 0 1 1 0 01-2 0zM520 399a1 1 0 112 0 1 1 0 01-2 0zM520 425a1 1 0 112 0 1 1 0 01-2 0zM520 451a1 1 0 112 0 1 1 0 01-2 0zM520 477a1 1 0 112 0 1 1 0 01-2 0zM520 503a1 1 0 112 0 1 1 0 01-2 0zM520 529a1 1 0 112 0 1 1 0 01-2 0zM520 555a1 1 0 112 0 1 1 0 01-2 0zM520 581a1 1 0 112 0 1 1 0 01-2 0zM520 607a1 1 0 112 0 1 1 0 01-2 0zM520 633a1 1 0 112 0 1 1 0 01-2 0zM520 659a1 1 0 112 0 1 1 0 01-2 0zM520 685a1 1 0 112 0 1 1 0 01-2 0zM520 711a1 1 0 112 0 1 1 0 01-2 0zM520 737a1 1 0 112 0 1 1 0 01-2 0zM520 763a1 1 0 112 0 1 1 0 01-2 0zM520 789a1 1 0 112 0 1 1 0 01-2 0zM520 815a1 1 0 112 0 1 1 0 01-2 0zM520 841a1 1 0 112 0 1 1 0 01-2 0zM520 867a1 1 0 112 0 1 1 0 01-2 0zM546-225a1 1 0 112 0 1 1 0 01-2 0zM546-199a1 1 0 112 0 1 1 0 01-2 0zM546-173a1 1 0 112 0 1 1 0 01-2 0zM546-147a1 1 0 112 0 1 1 0 01-2 0zM546-121a1 1 0 112 0 1 1 0 01-2 0zM546-95a1 1 0 112 0 1 1 0 01-2 0zM546-69a1 1 0 112 0 1 1 0 01-2 0zM546-43a1 1 0 112 0 1 1 0 01-2 0zM546-17a1 1 0 112 0 1 1 0 01-2 0zM546 9a1 1 0 112 0 1 1 0 01-2 0zM546 35a1 1 0 112 0 1 1 0 01-2 0zM546 61a1 1 0 112 0 1 1 0 01-2 0zM546 87a1 1 0 112 0 1 1 0 01-2 0zM546 113a1 1 0 112 0 1 1 0 01-2 0zM546 139a1 1 0 112 0 1 1 0 01-2 0zM546 165a1 1 0 112 0 1 1 0 01-2 0zM546 191a1 1 0 112 0 1 1 0 01-2 0zM546 217a1 1 0 112 0 1 1 0 01-2 0zM546 243a1 1 0 112 0 1 1 0 01-2 0zM546 269a1 1 0 112 0 1 1 0 01-2 0zM546 295a1 1 0 112 0 1 1 0 01-2 0zM546 321a1 1 0 112 0 1 1 0 01-2 0zM546 347a1 1 0 112 0 1 1 0 01-2 0zM546 373a1 1 0 112 0 1 1 0 01-2 0zM546 399a1 1 0 112 0 1 1 0 01-2 0zM546 425a1 1 0 112 0 1 1 0 01-2 0zM546 451a1 1 0 112 0 1 1 0 01-2 0zM546 477a1 1 0 112 0 1 1 0 01-2 0zM546 503a1 1 0 112 0 1 1 0 01-2 0zM546 529a1 1 0 112 0 1 1 0 01-2 0zM546 555a1 1 0 112 0 1 1 0 01-2 0zM546 581a1 1 0 112 0 1 1 0 01-2 0zM546 607a1 1 0 112 0 1 1 0 01-2 0zM546 633a1 1 0 112 0 1 1 0 01-2 0zM546 659a1 1 0 112 0 1 1 0 01-2 0zM546 685a1 1 0 112 0 1 1 0 01-2 0zM546 711a1 1 0 112 0 1 1 0 01-2 0zM546 737a1 1 0 112 0 1 1 0 01-2 0zM546 763a1 1 0 112 0 1 1 0 01-2 0zM546 789a1 1 0 112 0 1 1 0 01-2 0zM546 815a1 1 0 112 0 1 1 0 01-2 0zM546 841a1 1 0 112 0 1 1 0 01-2 0zM546 867a1 1 0 112 0 1 1 0 01-2 0zM572-225a1 1 0 112 0 1 1 0 01-2 0zM572-199a1 1 0 112 0 1 1 0 01-2 0zM572-173a1 1 0 112 0 1 1 0 01-2 0zM572-147a1 1 0 112 0 1 1 0 01-2 0zM572-121a1 1 0 112 0 1 1 0 01-2 0zM572-95a1 1 0 112 0 1 1 0 01-2 0zM572-69a1 1 0 112 0 1 1 0 01-2 0zM572-43a1 1 0 112 0 1 1 0 01-2 0zM572-17a1 1 0 112 0 1 1 0 01-2 0zM572 9a1 1 0 112 0 1 1 0 01-2 0zM572 35a1 1 0 112 0 1 1 0 01-2 0zM572 61a1 1 0 112 0 1 1 0 01-2 0zM572 87a1 1 0 112 0 1 1 0 01-2 0zM572 113a1 1 0 112 0 1 1 0 01-2 0zM572 139a1 1 0 112 0 1 1 0 01-2 0zM572 165a1 1 0 112 0 1 1 0 01-2 0zM572 191a1 1 0 112 0 1 1 0 01-2 0zM572 217a1 1 0 112 0 1 1 0 01-2 0zM572 243a1 1 0 112 0 1 1 0 01-2 0zM572 269a1 1 0 112 0 1 1 0 01-2 0zM572 295a1 1 0 112 0 1 1 0 01-2 0zM572 321a1 1 0 112 0 1 1 0 01-2 0zM572 347a1 1 0 112 0 1 1 0 01-2 0zM572 373a1 1 0 112 0 1 1 0 01-2 0zM572 399a1 1 0 112 0 1 1 0 01-2 0zM572 425a1 1 0 112 0 1 1 0 01-2 0zM572 451a1 1 0 112 0 1 1 0 01-2 0zM572 477a1 1 0 112 0 1 1 0 01-2 0zM572 503a1 1 0 112 0 1 1 0 01-2 0zM572 529a1 1 0 112 0 1 1 0 01-2 0zM572 555a1 1 0 112 0 1 1 0 01-2 0zM572 581a1 1 0 112 0 1 1 0 01-2 0zM572 607a1 1 0 112 0 1 1 0 01-2 0zM572 633a1 1 0 112 0 1 1 0 01-2 0zM572 659a1 1 0 112 0 1 1 0 01-2 0zM572 685a1 1 0 112 0 1 1 0 01-2 0zM572 711a1 1 0 112 0 1 1 0 01-2 0zM572 737a1 1 0 112 0 1 1 0 01-2 0zM572 763a1 1 0 112 0 1 1 0 01-2 0zM572 789a1 1 0 112 0 1 1 0 01-2 0zM572 815a1 1 0 112 0 1 1 0 01-2 0zM572 841a1 1 0 112 0 1 1 0 01-2 0zM572 867a1 1 0 112 0 1 1 0 01-2 0zM598-225a1 1 0 112 0 1 1 0 01-2 0zM598-199a1 1 0 112 0 1 1 0 01-2 0zM598-173a1 1 0 112 0 1 1 0 01-2 0zM598-147a1 1 0 112 0 1 1 0 01-2 0zM598-121a1 1 0 112 0 1 1 0 01-2 0zM598-95a1 1 0 112 0 1 1 0 01-2 0zM598-69a1 1 0 112 0 1 1 0 01-2 0zM598-43a1 1 0 112 0 1 1 0 01-2 0zM598-17a1 1 0 112 0 1 1 0 01-2 0zM598 9a1 1 0 112 0 1 1 0 01-2 0zM598 35a1 1 0 112 0 1 1 0 01-2 0zM598 61a1 1 0 112 0 1 1 0 01-2 0zM598 87a1 1 0 112 0 1 1 0 01-2 0zM598 113a1 1 0 112 0 1 1 0 01-2 0zM598 139a1 1 0 112 0 1 1 0 01-2 0zM598 165a1 1 0 112 0 1 1 0 01-2 0zM598 191a1 1 0 112 0 1 1 0 01-2 0zM598 217a1 1 0 112 0 1 1 0 01-2 0zM598 243a1 1 0 112 0 1 1 0 01-2 0zM598 269a1 1 0 112 0 1 1 0 01-2 0zM598 295a1 1 0 112 0 1 1 0 01-2 0zM598 321a1 1 0 112 0 1 1 0 01-2 0zM598 347a1 1 0 112 0 1 1 0 01-2 0zM598 373a1 1 0 112 0 1 1 0 01-2 0zM598 399a1 1 0 112 0 1 1 0 01-2 0zM598 425a1 1 0 112 0 1 1 0 01-2 0zM598 451a1 1 0 112 0 1 1 0 01-2 0zM598 477a1 1 0 112 0 1 1 0 01-2 0zM598 503a1 1 0 112 0 1 1 0 01-2 0zM598 529a1 1 0 112 0 1 1 0 01-2 0zM598 555a1 1 0 112 0 1 1 0 01-2 0zM598 581a1 1 0 112 0 1 1 0 01-2 0zM598 607a1 1 0 112 0 1 1 0 01-2 0zM598 633a1 1 0 112 0 1 1 0 01-2 0zM598 659a1 1 0 112 0 1 1 0 01-2 0zM598 685a1 1 0 112 0 1 1 0 01-2 0zM598 711a1 1 0 112 0 1 1 0 01-2 0zM598 737a1 1 0 112 0 1 1 0 01-2 0zM598 763a1 1 0 112 0 1 1 0 01-2 0zM598 789a1 1 0 112 0 1 1 0 01-2 0zM598 815a1 1 0 112 0 1 1 0 01-2 0zM598 841a1 1 0 112 0 1 1 0 01-2 0zM598 867a1 1 0 112 0 1 1 0 01-2 0zM624-225a1 1 0 112 0 1 1 0 01-2 0zM624-199a1 1 0 112 0 1 1 0 01-2 0zM624-173a1 1 0 112 0 1 1 0 01-2 0zM624-147a1 1 0 112 0 1 1 0 01-2 0zM624-121a1 1 0 112 0 1 1 0 01-2 0zM624-95a1 1 0 112 0 1 1 0 01-2 0zM624-69a1 1 0 112 0 1 1 0 01-2 0zM624-43a1 1 0 112 0 1 1 0 01-2 0zM624-17a1 1 0 112 0 1 1 0 01-2 0zM624 9a1 1 0 112 0 1 1 0 01-2 0zM624 35a1 1 0 112 0 1 1 0 01-2 0zM624 61a1 1 0 112 0 1 1 0 01-2 0zM624 87a1 1 0 112 0 1 1 0 01-2 0zM624 113a1 1 0 112 0 1 1 0 01-2 0zM624 139a1 1 0 112 0 1 1 0 01-2 0zM624 165a1 1 0 112 0 1 1 0 01-2 0zM624 191a1 1 0 112 0 1 1 0 01-2 0zM624 217a1 1 0 112 0 1 1 0 01-2 0zM624 243a1 1 0 112 0 1 1 0 01-2 0zM624 269a1 1 0 112 0 1 1 0 01-2 0zM624 295a1 1 0 112 0 1 1 0 01-2 0zM624 321a1 1 0 112 0 1 1 0 01-2 0zM624 347a1 1 0 112 0 1 1 0 01-2 0zM624 373a1 1 0 112 0 1 1 0 01-2 0zM624 399a1 1 0 112 0 1 1 0 01-2 0zM624 425a1 1 0 112 0 1 1 0 01-2 0zM624 451a1 1 0 112 0 1 1 0 01-2 0zM624 477a1 1 0 112 0 1 1 0 01-2 0zM624 503a1 1 0 112 0 1 1 0 01-2 0zM624 529a1 1 0 112 0 1 1 0 01-2 0zM624 555a1 1 0 112 0 1 1 0 01-2 0zM624 581a1 1 0 112 0 1 1 0 01-2 0zM624 607a1 1 0 112 0 1 1 0 01-2 0zM624 633a1 1 0 112 0 1 1 0 01-2 0zM624 659a1 1 0 112 0 1 1 0 01-2 0zM624 685a1 1 0 112 0 1 1 0 01-2 0zM624 711a1 1 0 112 0 1 1 0 01-2 0zM624 737a1 1 0 112 0 1 1 0 01-2 0zM624 763a1 1 0 112 0 1 1 0 01-2 0zM624 789a1 1 0 112 0 1 1 0 01-2 0zM624 815a1 1 0 112 0 1 1 0 01-2 0zM624 841a1 1 0 112 0 1 1 0 01-2 0zM624 867a1 1 0 112 0 1 1 0 01-2 0zM650-225a1 1 0 112 0 1 1 0 01-2 0zM650-199a1 1 0 112 0 1 1 0 01-2 0zM650-173a1 1 0 112 0 1 1 0 01-2 0zM650-147a1 1 0 112 0 1 1 0 01-2 0zM650-121a1 1 0 112 0 1 1 0 01-2 0zM650-95a1 1 0 112 0 1 1 0 01-2 0zM650-69a1 1 0 112 0 1 1 0 01-2 0zM650-43a1 1 0 112 0 1 1 0 01-2 0zM650-17a1 1 0 112 0 1 1 0 01-2 0zM650 9a1 1 0 112 0 1 1 0 01-2 0zM650 35a1 1 0 112 0 1 1 0 01-2 0zM650 61a1 1 0 112 0 1 1 0 01-2 0zM650 87a1 1 0 112 0 1 1 0 01-2 0zM650 113a1 1 0 112 0 1 1 0 01-2 0zM650 139a1 1 0 112 0 1 1 0 01-2 0zM650 165a1 1 0 112 0 1 1 0 01-2 0zM650 191a1 1 0 112 0 1 1 0 01-2 0zM650 217a1 1 0 112 0 1 1 0 01-2 0zM650 243a1 1 0 112 0 1 1 0 01-2 0zM650 269a1 1 0 112 0 1 1 0 01-2 0zM650 295a1 1 0 112 0 1 1 0 01-2 0zM650 321a1 1 0 112 0 1 1 0 01-2 0zM650 347a1 1 0 112 0 1 1 0 01-2 0zM650 373a1 1 0 112 0 1 1 0 01-2 0zM650 399a1 1 0 112 0 1 1 0 01-2 0zM650 425a1 1 0 112 0 1 1 0 01-2 0zM650 451a1 1 0 112 0 1 1 0 01-2 0zM650 477a1 1 0 112 0 1 1 0 01-2 0zM650 503a1 1 0 112 0 1 1 0 01-2 0zM650 529a1 1 0 112 0 1 1 0 01-2 0zM650 555a1 1 0 112 0 1 1 0 01-2 0zM650 581a1 1 0 112 0 1 1 0 01-2 0zM650 607a1 1 0 112 0 1 1 0 01-2 0zM650 633a1 1 0 112 0 1 1 0 01-2 0zM650 659a1 1 0 112 0 1 1 0 01-2 0zM650 685a1 1 0 112 0 1 1 0 01-2 0zM650 711a1 1 0 112 0 1 1 0 01-2 0zM650 737a1 1 0 112 0 1 1 0 01-2 0zM650 763a1 1 0 112 0 1 1 0 01-2 0zM650 789a1 1 0 112 0 1 1 0 01-2 0zM650 815a1 1 0 112 0 1 1 0 01-2 0zM650 841a1 1 0 112 0 1 1 0 01-2 0zM650 867a1 1 0 112 0 1 1 0 01-2 0zM676-225a1 1 0 112 0 1 1 0 01-2 0zM676-199a1 1 0 112 0 1 1 0 01-2 0zM676-173a1 1 0 112 0 1 1 0 01-2 0zM676-147a1 1 0 112 0 1 1 0 01-2 0zM676-121a1 1 0 112 0 1 1 0 01-2 0zM676-95a1 1 0 112 0 1 1 0 01-2 0zM676-69a1 1 0 112 0 1 1 0 01-2 0zM676-43a1 1 0 112 0 1 1 0 01-2 0zM676-17a1 1 0 112 0 1 1 0 01-2 0zM676 9a1 1 0 112 0 1 1 0 01-2 0zM676 35a1 1 0 112 0 1 1 0 01-2 0zM676 61a1 1 0 112 0 1 1 0 01-2 0zM676 87a1 1 0 112 0 1 1 0 01-2 0zM676 113a1 1 0 112 0 1 1 0 01-2 0zM676 139a1 1 0 112 0 1 1 0 01-2 0zM676 165a1 1 0 112 0 1 1 0 01-2 0zM676 191a1 1 0 112 0 1 1 0 01-2 0zM676 217a1 1 0 112 0 1 1 0 01-2 0zM676 243a1 1 0 112 0 1 1 0 01-2 0zM676 269a1 1 0 112 0 1 1 0 01-2 0zM676 295a1 1 0 112 0 1 1 0 01-2 0zM676 321a1 1 0 112 0 1 1 0 01-2 0zM676 347a1 1 0 112 0 1 1 0 01-2 0zM676 373a1 1 0 112 0 1 1 0 01-2 0zM676 399a1 1 0 112 0 1 1 0 01-2 0zM676 425a1 1 0 112 0 1 1 0 01-2 0zM676 451a1 1 0 112 0 1 1 0 01-2 0zM676 477a1 1 0 112 0 1 1 0 01-2 0zM676 503a1 1 0 112 0 1 1 0 01-2 0zM676 529a1 1 0 112 0 1 1 0 01-2 0zM676 555a1 1 0 112 0 1 1 0 01-2 0zM676 581a1 1 0 112 0 1 1 0 01-2 0zM676 607a1 1 0 112 0 1 1 0 01-2 0zM676 633a1 1 0 112 0 1 1 0 01-2 0zM676 659a1 1 0 112 0 1 1 0 01-2 0zM676 685a1 1 0 112 0 1 1 0 01-2 0zM676 711a1 1 0 112 0 1 1 0 01-2 0zM676 737a1 1 0 112 0 1 1 0 01-2 0zM676 763a1 1 0 112 0 1 1 0 01-2 0zM676 789a1 1 0 112 0 1 1 0 01-2 0zM676 815a1 1 0 112 0 1 1 0 01-2 0zM676 841a1 1 0 112 0 1 1 0 01-2 0zM676 867a1 1 0 112 0 1 1 0 01-2 0zM702-225a1 1 0 112 0 1 1 0 01-2 0zM702-199a1 1 0 112 0 1 1 0 01-2 0zM702-173a1 1 0 112 0 1 1 0 01-2 0zM702-147a1 1 0 112 0 1 1 0 01-2 0zM702-121a1 1 0 112 0 1 1 0 01-2 0zM702-95a1 1 0 112 0 1 1 0 01-2 0zM702-69a1 1 0 112 0 1 1 0 01-2 0zM702-43a1 1 0 112 0 1 1 0 01-2 0zM702-17a1 1 0 112 0 1 1 0 01-2 0zM702 9a1 1 0 112 0 1 1 0 01-2 0zM702 35a1 1 0 112 0 1 1 0 01-2 0zM702 61a1 1 0 112 0 1 1 0 01-2 0zM702 87a1 1 0 112 0 1 1 0 01-2 0zM702 113a1 1 0 112 0 1 1 0 01-2 0zM702 139a1 1 0 112 0 1 1 0 01-2 0zM702 165a1 1 0 112 0 1 1 0 01-2 0zM702 191a1 1 0 112 0 1 1 0 01-2 0zM702 217a1 1 0 112 0 1 1 0 01-2 0zM702 243a1 1 0 112 0 1 1 0 01-2 0zM702 269a1 1 0 112 0 1 1 0 01-2 0zM702 295a1 1 0 112 0 1 1 0 01-2 0zM702 321a1 1 0 112 0 1 1 0 01-2 0zM702 347a1 1 0 112 0 1 1 0 01-2 0zM702 373a1 1 0 112 0 1 1 0 01-2 0zM702 399a1 1 0 112 0 1 1 0 01-2 0zM702 425a1 1 0 112 0 1 1 0 01-2 0zM702 451a1 1 0 112 0 1 1 0 01-2 0zM702 477a1 1 0 112 0 1 1 0 01-2 0zM702 503a1 1 0 112 0 1 1 0 01-2 0zM702 529a1 1 0 112 0 1 1 0 01-2 0zM702 555a1 1 0 112 0 1 1 0 01-2 0zM702 581a1 1 0 112 0 1 1 0 01-2 0zM702 607a1 1 0 112 0 1 1 0 01-2 0zM702 633a1 1 0 112 0 1 1 0 01-2 0zM702 659a1 1 0 112 0 1 1 0 01-2 0zM702 685a1 1 0 112 0 1 1 0 01-2 0zM702 711a1 1 0 112 0 1 1 0 01-2 0zM702 737a1 1 0 112 0 1 1 0 01-2 0zM702 763a1 1 0 112 0 1 1 0 01-2 0zM702 789a1 1 0 112 0 1 1 0 01-2 0zM702 815a1 1 0 112 0 1 1 0 01-2 0zM702 841a1 1 0 112 0 1 1 0 01-2 0zM702 867a1 1 0 112 0 1 1 0 01-2 0zM728-225a1 1 0 112 0 1 1 0 01-2 0zM728-199a1 1 0 112 0 1 1 0 01-2 0zM728-173a1 1 0 112 0 1 1 0 01-2 0zM728-147a1 1 0 112 0 1 1 0 01-2 0zM728-121a1 1 0 112 0 1 1 0 01-2 0zM728-95a1 1 0 112 0 1 1 0 01-2 0zM728-69a1 1 0 112 0 1 1 0 01-2 0zM728-43a1 1 0 112 0 1 1 0 01-2 0zM728-17a1 1 0 112 0 1 1 0 01-2 0zM728 9a1 1 0 112 0 1 1 0 01-2 0zM728 35a1 1 0 112 0 1 1 0 01-2 0zM728 61a1 1 0 112 0 1 1 0 01-2 0zM728 87a1 1 0 112 0 1 1 0 01-2 0zM728 113a1 1 0 112 0 1 1 0 01-2 0zM728 139a1 1 0 112 0 1 1 0 01-2 0zM728 165a1 1 0 112 0 1 1 0 01-2 0zM728 191a1 1 0 112 0 1 1 0 01-2 0zM728 217a1 1 0 112 0 1 1 0 01-2 0zM728 243a1 1 0 112 0 1 1 0 01-2 0zM728 269a1 1 0 112 0 1 1 0 01-2 0zM728 295a1 1 0 112 0 1 1 0 01-2 0zM728 321a1 1 0 112 0 1 1 0 01-2 0zM728 347a1 1 0 112 0 1 1 0 01-2 0zM728 373a1 1 0 112 0 1 1 0 01-2 0zM728 399a1 1 0 112 0 1 1 0 01-2 0zM728 425a1 1 0 112 0 1 1 0 01-2 0zM728 451a1 1 0 112 0 1 1 0 01-2 0zM728 477a1 1 0 112 0 1 1 0 01-2 0zM728 503a1 1 0 112 0 1 1 0 01-2 0zM728 529a1 1 0 112 0 1 1 0 01-2 0zM728 555a1 1 0 112 0 1 1 0 01-2 0zM728 581a1 1 0 112 0 1 1 0 01-2 0zM728 607a1 1 0 112 0 1 1 0 01-2 0zM728 633a1 1 0 112 0 1 1 0 01-2 0zM728 659a1 1 0 112 0 1 1 0 01-2 0zM728 685a1 1 0 112 0 1 1 0 01-2 0zM728 711a1 1 0 112 0 1 1 0 01-2 0zM728 737a1 1 0 112 0 1 1 0 01-2 0zM728 763a1 1 0 112 0 1 1 0 01-2 0zM728 789a1 1 0 112 0 1 1 0 01-2 0zM728 815a1 1 0 112 0 1 1 0 01-2 0zM728 841a1 1 0 112 0 1 1 0 01-2 0zM728 867a1 1 0 112 0 1 1 0 01-2 0zM754-225a1 1 0 112 0 1 1 0 01-2 0zM754-199a1 1 0 112 0 1 1 0 01-2 0zM754-173a1 1 0 112 0 1 1 0 01-2 0zM754-147a1 1 0 112 0 1 1 0 01-2 0zM754-121a1 1 0 112 0 1 1 0 01-2 0zM754-95a1 1 0 112 0 1 1 0 01-2 0zM754-69a1 1 0 112 0 1 1 0 01-2 0zM754-43a1 1 0 112 0 1 1 0 01-2 0zM754-17a1 1 0 112 0 1 1 0 01-2 0zM754 9a1 1 0 112 0 1 1 0 01-2 0zM754 35a1 1 0 112 0 1 1 0 01-2 0zM754 61a1 1 0 112 0 1 1 0 01-2 0zM754 87a1 1 0 112 0 1 1 0 01-2 0zM754 113a1 1 0 112 0 1 1 0 01-2 0zM754 139a1 1 0 112 0 1 1 0 01-2 0zM754 165a1 1 0 112 0 1 1 0 01-2 0zM754 191a1 1 0 112 0 1 1 0 01-2 0zM754 217a1 1 0 112 0 1 1 0 01-2 0zM754 243a1 1 0 112 0 1 1 0 01-2 0zM754 269a1 1 0 112 0 1 1 0 01-2 0zM754 295a1 1 0 112 0 1 1 0 01-2 0zM754 321a1 1 0 112 0 1 1 0 01-2 0zM754 347a1 1 0 112 0 1 1 0 01-2 0zM754 373a1 1 0 112 0 1 1 0 01-2 0zM754 399a1 1 0 112 0 1 1 0 01-2 0zM754 425a1 1 0 112 0 1 1 0 01-2 0zM754 451a1 1 0 112 0 1 1 0 01-2 0zM754 477a1 1 0 112 0 1 1 0 01-2 0zM754 503a1 1 0 112 0 1 1 0 01-2 0zM754 529a1 1 0 112 0 1 1 0 01-2 0zM754 555a1 1 0 112 0 1 1 0 01-2 0zM754 581a1 1 0 112 0 1 1 0 01-2 0zM754 607a1 1 0 112 0 1 1 0 01-2 0zM754 633a1 1 0 112 0 1 1 0 01-2 0zM754 659a1 1 0 112 0 1 1 0 01-2 0zM754 685a1 1 0 112 0 1 1 0 01-2 0zM754 711a1 1 0 112 0 1 1 0 01-2 0zM754 737a1 1 0 112 0 1 1 0 01-2 0zM754 763a1 1 0 112 0 1 1 0 01-2 0zM754 789a1 1 0 112 0 1 1 0 01-2 0zM754 815a1 1 0 112 0 1 1 0 01-2 0zM754 841a1 1 0 112 0 1 1 0 01-2 0zM754 867a1 1 0 112 0 1 1 0 01-2 0zM780-225a1 1 0 112 0 1 1 0 01-2 0zM780-199a1 1 0 112 0 1 1 0 01-2 0zM780-173a1 1 0 112 0 1 1 0 01-2 0zM780-147a1 1 0 112 0 1 1 0 01-2 0zM780-121a1 1 0 112 0 1 1 0 01-2 0zM780-95a1 1 0 112 0 1 1 0 01-2 0zM780-69a1 1 0 112 0 1 1 0 01-2 0zM780-43a1 1 0 112 0 1 1 0 01-2 0zM780-17a1 1 0 112 0 1 1 0 01-2 0zM780 9a1 1 0 112 0 1 1 0 01-2 0zM780 35a1 1 0 112 0 1 1 0 01-2 0zM780 61a1 1 0 112 0 1 1 0 01-2 0zM780 87a1 1 0 112 0 1 1 0 01-2 0zM780 113a1 1 0 112 0 1 1 0 01-2 0zM780 139a1 1 0 112 0 1 1 0 01-2 0zM780 165a1 1 0 112 0 1 1 0 01-2 0zM780 191a1 1 0 112 0 1 1 0 01-2 0zM780 217a1 1 0 112 0 1 1 0 01-2 0zM780 243a1 1 0 112 0 1 1 0 01-2 0zM780 269a1 1 0 112 0 1 1 0 01-2 0zM780 295a1 1 0 112 0 1 1 0 01-2 0zM780 321a1 1 0 112 0 1 1 0 01-2 0zM780 347a1 1 0 112 0 1 1 0 01-2 0zM780 373a1 1 0 112 0 1 1 0 01-2 0zM780 399a1 1 0 112 0 1 1 0 01-2 0zM780 425a1 1 0 112 0 1 1 0 01-2 0zM780 451a1 1 0 112 0 1 1 0 01-2 0zM780 477a1 1 0 112 0 1 1 0 01-2 0zM780 503a1 1 0 112 0 1 1 0 01-2 0zM780 529a1 1 0 112 0 1 1 0 01-2 0zM780 555a1 1 0 112 0 1 1 0 01-2 0zM780 581a1 1 0 112 0 1 1 0 01-2 0zM780 607a1 1 0 112 0 1 1 0 01-2 0zM780 633a1 1 0 112 0 1 1 0 01-2 0zM780 659a1 1 0 112 0 1 1 0 01-2 0zM780 685a1 1 0 112 0 1 1 0 01-2 0zM780 711a1 1 0 112 0 1 1 0 01-2 0zM780 737a1 1 0 112 0 1 1 0 01-2 0zM780 763a1 1 0 112 0 1 1 0 01-2 0zM780 789a1 1 0 112 0 1 1 0 01-2 0zM780 815a1 1 0 112 0 1 1 0 01-2 0zM780 841a1 1 0 112 0 1 1 0 01-2 0zM780 867a1 1 0 112 0 1 1 0 01-2 0zM806-225a1 1 0 112 0 1 1 0 01-2 0zM806-199a1 1 0 112 0 1 1 0 01-2 0zM806-173a1 1 0 112 0 1 1 0 01-2 0zM806-147a1 1 0 112 0 1 1 0 01-2 0zM806-121a1 1 0 112 0 1 1 0 01-2 0zM806-95a1 1 0 112 0 1 1 0 01-2 0zM806-69a1 1 0 112 0 1 1 0 01-2 0zM806-43a1 1 0 112 0 1 1 0 01-2 0zM806-17a1 1 0 112 0 1 1 0 01-2 0zM806 9a1 1 0 112 0 1 1 0 01-2 0zM806 35a1 1 0 112 0 1 1 0 01-2 0zM806 61a1 1 0 112 0 1 1 0 01-2 0zM806 87a1 1 0 112 0 1 1 0 01-2 0zM806 113a1 1 0 112 0 1 1 0 01-2 0zM806 139a1 1 0 112 0 1 1 0 01-2 0zM806 165a1 1 0 112 0 1 1 0 01-2 0zM806 191a1 1 0 112 0 1 1 0 01-2 0zM806 217a1 1 0 112 0 1 1 0 01-2 0zM806 243a1 1 0 112 0 1 1 0 01-2 0zM806 269a1 1 0 112 0 1 1 0 01-2 0zM806 295a1 1 0 112 0 1 1 0 01-2 0zM806 321a1 1 0 112 0 1 1 0 01-2 0zM806 347a1 1 0 112 0 1 1 0 01-2 0zM806 373a1 1 0 112 0 1 1 0 01-2 0zM806 399a1 1 0 112 0 1 1 0 01-2 0zM806 425a1 1 0 112 0 1 1 0 01-2 0zM806 451a1 1 0 112 0 1 1 0 01-2 0zM806 477a1 1 0 112 0 1 1 0 01-2 0zM806 503a1 1 0 112 0 1 1 0 01-2 0zM806 529a1 1 0 112 0 1 1 0 01-2 0zM806 555a1 1 0 112 0 1 1 0 01-2 0zM806 581a1 1 0 112 0 1 1 0 01-2 0zM806 607a1 1 0 112 0 1 1 0 01-2 0zM806 633a1 1 0 112 0 1 1 0 01-2 0zM806 659a1 1 0 112 0 1 1 0 01-2 0zM806 685a1 1 0 112 0 1 1 0 01-2 0zM806 711a1 1 0 112 0 1 1 0 01-2 0zM806 737a1 1 0 112 0 1 1 0 01-2 0zM806 763a1 1 0 112 0 1 1 0 01-2 0zM806 789a1 1 0 112 0 1 1 0 01-2 0zM806 815a1 1 0 112 0 1 1 0 01-2 0zM806 841a1 1 0 112 0 1 1 0 01-2 0zM806 867a1 1 0 112 0 1 1 0 01-2 0zM832-225a1 1 0 112 0 1 1 0 01-2 0zM832-199a1 1 0 112 0 1 1 0 01-2 0zM832-173a1 1 0 112 0 1 1 0 01-2 0zM832-147a1 1 0 112 0 1 1 0 01-2 0zM832-121a1 1 0 112 0 1 1 0 01-2 0zM832-95a1 1 0 112 0 1 1 0 01-2 0zM832-69a1 1 0 112 0 1 1 0 01-2 0zM832-43a1 1 0 112 0 1 1 0 01-2 0zM832-17a1 1 0 112 0 1 1 0 01-2 0zM832 9a1 1 0 112 0 1 1 0 01-2 0zM832 35a1 1 0 112 0 1 1 0 01-2 0zM832 61a1 1 0 112 0 1 1 0 01-2 0zM832 87a1 1 0 112 0 1 1 0 01-2 0zM832 113a1 1 0 112 0 1 1 0 01-2 0zM832 139a1 1 0 112 0 1 1 0 01-2 0zM832 165a1 1 0 112 0 1 1 0 01-2 0zM832 191a1 1 0 112 0 1 1 0 01-2 0zM832 217a1 1 0 112 0 1 1 0 01-2 0zM832 243a1 1 0 112 0 1 1 0 01-2 0zM832 269a1 1 0 112 0 1 1 0 01-2 0zM832 295a1 1 0 112 0 1 1 0 01-2 0zM832 321a1 1 0 112 0 1 1 0 01-2 0zM832 347a1 1 0 112 0 1 1 0 01-2 0zM832 373a1 1 0 112 0 1 1 0 01-2 0zM832 399a1 1 0 112 0 1 1 0 01-2 0zM832 425a1 1 0 112 0 1 1 0 01-2 0zM832 451a1 1 0 112 0 1 1 0 01-2 0zM832 477a1 1 0 112 0 1 1 0 01-2 0zM832 503a1 1 0 112 0 1 1 0 01-2 0zM832 529a1 1 0 112 0 1 1 0 01-2 0zM832 555a1 1 0 112 0 1 1 0 01-2 0zM832 581a1 1 0 112 0 1 1 0 01-2 0zM832 607a1 1 0 112 0 1 1 0 01-2 0zM832 633a1 1 0 112 0 1 1 0 01-2 0zM832 659a1 1 0 112 0 1 1 0 01-2 0zM832 685a1 1 0 112 0 1 1 0 01-2 0zM832 711a1 1 0 112 0 1 1 0 01-2 0zM832 737a1 1 0 112 0 1 1 0 01-2 0zM832 763a1 1 0 112 0 1 1 0 01-2 0zM832 789a1 1 0 112 0 1 1 0 01-2 0zM832 815a1 1 0 112 0 1 1 0 01-2 0zM832 841a1 1 0 112 0 1 1 0 01-2 0zM832 867a1 1 0 112 0 1 1 0 01-2 0zM858-225a1 1 0 112 0 1 1 0 01-2 0zM858-199a1 1 0 112 0 1 1 0 01-2 0zM858-173a1 1 0 112 0 1 1 0 01-2 0zM858-147a1 1 0 112 0 1 1 0 01-2 0zM858-121a1 1 0 112 0 1 1 0 01-2 0zM858-95a1 1 0 112 0 1 1 0 01-2 0zM858-69a1 1 0 112 0 1 1 0 01-2 0zM858-43a1 1 0 112 0 1 1 0 01-2 0zM858-17a1 1 0 112 0 1 1 0 01-2 0zM858 9a1 1 0 112 0 1 1 0 01-2 0zM858 35a1 1 0 112 0 1 1 0 01-2 0zM858 61a1 1 0 112 0 1 1 0 01-2 0zM858 87a1 1 0 112 0 1 1 0 01-2 0zM858 113a1 1 0 112 0 1 1 0 01-2 0zM858 139a1 1 0 112 0 1 1 0 01-2 0zM858 165a1 1 0 112 0 1 1 0 01-2 0zM858 191a1 1 0 112 0 1 1 0 01-2 0zM858 217a1 1 0 112 0 1 1 0 01-2 0zM858 243a1 1 0 112 0 1 1 0 01-2 0zM858 269a1 1 0 112 0 1 1 0 01-2 0zM858 295a1 1 0 112 0 1 1 0 01-2 0zM858 321a1 1 0 112 0 1 1 0 01-2 0zM858 347a1 1 0 112 0 1 1 0 01-2 0zM858 373a1 1 0 112 0 1 1 0 01-2 0zM858 399a1 1 0 112 0 1 1 0 01-2 0zM858 425a1 1 0 112 0 1 1 0 01-2 0zM858 451a1 1 0 112 0 1 1 0 01-2 0zM858 477a1 1 0 112 0 1 1 0 01-2 0zM858 503a1 1 0 112 0 1 1 0 01-2 0zM858 529a1 1 0 112 0 1 1 0 01-2 0zM858 555a1 1 0 112 0 1 1 0 01-2 0zM858 581a1 1 0 112 0 1 1 0 01-2 0zM858 607a1 1 0 112 0 1 1 0 01-2 0zM858 633a1 1 0 112 0 1 1 0 01-2 0zM858 659a1 1 0 112 0 1 1 0 01-2 0zM858 685a1 1 0 112 0 1 1 0 01-2 0zM858 711a1 1 0 112 0 1 1 0 01-2 0zM858 737a1 1 0 112 0 1 1 0 01-2 0zM858 763a1 1 0 112 0 1 1 0 01-2 0zM858 789a1 1 0 112 0 1 1 0 01-2 0zM858 815a1 1 0 112 0 1 1 0 01-2 0zM858 841a1 1 0 112 0 1 1 0 01-2 0zM858 867a1 1 0 112 0 1 1 0 01-2 0zM884-225a1 1 0 112 0 1 1 0 01-2 0zM884-199a1 1 0 112 0 1 1 0 01-2 0zM884-173a1 1 0 112 0 1 1 0 01-2 0zM884-147a1 1 0 112 0 1 1 0 01-2 0zM884-121a1 1 0 112 0 1 1 0 01-2 0zM884-95a1 1 0 112 0 1 1 0 01-2 0zM884-69a1 1 0 112 0 1 1 0 01-2 0zM884-43a1 1 0 112 0 1 1 0 01-2 0zM884-17a1 1 0 112 0 1 1 0 01-2 0zM884 9a1 1 0 112 0 1 1 0 01-2 0zM884 35a1 1 0 112 0 1 1 0 01-2 0zM884 61a1 1 0 112 0 1 1 0 01-2 0zM884 87a1 1 0 112 0 1 1 0 01-2 0zM884 113a1 1 0 112 0 1 1 0 01-2 0zM884 139a1 1 0 112 0 1 1 0 01-2 0zM884 165a1 1 0 112 0 1 1 0 01-2 0zM884 191a1 1 0 112 0 1 1 0 01-2 0zM884 217a1 1 0 112 0 1 1 0 01-2 0zM884 243a1 1 0 112 0 1 1 0 01-2 0zM884 269a1 1 0 112 0 1 1 0 01-2 0zM884 295a1 1 0 112 0 1 1 0 01-2 0zM884 321a1 1 0 112 0 1 1 0 01-2 0zM884 347a1 1 0 112 0 1 1 0 01-2 0zM884 373a1 1 0 112 0 1 1 0 01-2 0zM884 399a1 1 0 112 0 1 1 0 01-2 0zM884 425a1 1 0 112 0 1 1 0 01-2 0zM884 451a1 1 0 112 0 1 1 0 01-2 0zM884 477a1 1 0 112 0 1 1 0 01-2 0zM884 503a1 1 0 112 0 1 1 0 01-2 0zM884 529a1 1 0 112 0 1 1 0 01-2 0zM884 555a1 1 0 112 0 1 1 0 01-2 0zM884 581a1 1 0 112 0 1 1 0 01-2 0zM884 607a1 1 0 112 0 1 1 0 01-2 0zM884 633a1 1 0 112 0 1 1 0 01-2 0zM884 659a1 1 0 112 0 1 1 0 01-2 0zM884 685a1 1 0 112 0 1 1 0 01-2 0zM884 711a1 1 0 112 0 1 1 0 01-2 0zM884 737a1 1 0 112 0 1 1 0 01-2 0zM884 763a1 1 0 112 0 1 1 0 01-2 0zM884 789a1 1 0 112 0 1 1 0 01-2 0zM884 815a1 1 0 112 0 1 1 0 01-2 0zM884 841a1 1 0 112 0 1 1 0 01-2 0zM884 867a1 1 0 112 0 1 1 0 01-2 0zM910-225a1 1 0 112 0 1 1 0 01-2 0zM910-199a1 1 0 112 0 1 1 0 01-2 0zM910-173a1 1 0 112 0 1 1 0 01-2 0zM910-147a1 1 0 112 0 1 1 0 01-2 0zM910-121a1 1 0 112 0 1 1 0 01-2 0zM910-95a1 1 0 112 0 1 1 0 01-2 0zM910-69a1 1 0 112 0 1 1 0 01-2 0zM910-43a1 1 0 112 0 1 1 0 01-2 0zM910-17a1 1 0 112 0 1 1 0 01-2 0zM910 9a1 1 0 112 0 1 1 0 01-2 0zM910 35a1 1 0 112 0 1 1 0 01-2 0zM910 61a1 1 0 112 0 1 1 0 01-2 0zM910 87a1 1 0 112 0 1 1 0 01-2 0zM910 113a1 1 0 112 0 1 1 0 01-2 0zM910 139a1 1 0 112 0 1 1 0 01-2 0zM910 165a1 1 0 112 0 1 1 0 01-2 0zM910 191a1 1 0 112 0 1 1 0 01-2 0zM910 217a1 1 0 112 0 1 1 0 01-2 0zM910 243a1 1 0 112 0 1 1 0 01-2 0zM910 269a1 1 0 112 0 1 1 0 01-2 0zM910 295a1 1 0 112 0 1 1 0 01-2 0zM910 321a1 1 0 112 0 1 1 0 01-2 0zM910 347a1 1 0 112 0 1 1 0 01-2 0zM910 373a1 1 0 112 0 1 1 0 01-2 0zM910 399a1 1 0 112 0 1 1 0 01-2 0zM910 425a1 1 0 112 0 1 1 0 01-2 0zM910 451a1 1 0 112 0 1 1 0 01-2 0zM910 477a1 1 0 112 0 1 1 0 01-2 0zM910 503a1 1 0 112 0 1 1 0 01-2 0zM910 529a1 1 0 112 0 1 1 0 01-2 0zM910 555a1 1 0 112 0 1 1 0 01-2 0zM910 581a1 1 0 112 0 1 1 0 01-2 0zM910 607a1 1 0 112 0 1 1 0 01-2 0zM910 633a1 1 0 112 0 1 1 0 01-2 0zM910 659a1 1 0 112 0 1 1 0 01-2 0zM910 685a1 1 0 112 0 1 1 0 01-2 0zM910 711a1 1 0 112 0 1 1 0 01-2 0zM910 737a1 1 0 112 0 1 1 0 01-2 0zM910 763a1 1 0 112 0 1 1 0 01-2 0zM910 789a1 1 0 112 0 1 1 0 01-2 0zM910 815a1 1 0 112 0 1 1 0 01-2 0zM910 841a1 1 0 112 0 1 1 0 01-2 0zM910 867a1 1 0 112 0 1 1 0 01-2 0zM936-225a1 1 0 112 0 1 1 0 01-2 0zM936-199a1 1 0 112 0 1 1 0 01-2 0zM936-173a1 1 0 112 0 1 1 0 01-2 0zM936-147a1 1 0 112 0 1 1 0 01-2 0zM936-121a1 1 0 112 0 1 1 0 01-2 0zM936-95a1 1 0 112 0 1 1 0 01-2 0zM936-69a1 1 0 112 0 1 1 0 01-2 0zM936-43a1 1 0 112 0 1 1 0 01-2 0zM936-17a1 1 0 112 0 1 1 0 01-2 0zM936 9a1 1 0 112 0 1 1 0 01-2 0zM936 35a1 1 0 112 0 1 1 0 01-2 0zM936 61a1 1 0 112 0 1 1 0 01-2 0zM936 87a1 1 0 112 0 1 1 0 01-2 0zM936 113a1 1 0 112 0 1 1 0 01-2 0zM936 139a1 1 0 112 0 1 1 0 01-2 0zM936 165a1 1 0 112 0 1 1 0 01-2 0zM936 191a1 1 0 112 0 1 1 0 01-2 0zM936 217a1 1 0 112 0 1 1 0 01-2 0zM936 243a1 1 0 112 0 1 1 0 01-2 0zM936 269a1 1 0 112 0 1 1 0 01-2 0zM936 295a1 1 0 112 0 1 1 0 01-2 0zM936 321a1 1 0 112 0 1 1 0 01-2 0zM936 347a1 1 0 112 0 1 1 0 01-2 0zM936 373a1 1 0 112 0 1 1 0 01-2 0zM936 399a1 1 0 112 0 1 1 0 01-2 0zM936 425a1 1 0 112 0 1 1 0 01-2 0zM936 451a1 1 0 112 0 1 1 0 01-2 0zM936 477a1 1 0 112 0 1 1 0 01-2 0zM936 503a1 1 0 112 0 1 1 0 01-2 0zM936 529a1 1 0 112 0 1 1 0 01-2 0zM936 555a1 1 0 112 0 1 1 0 01-2 0zM936 581a1 1 0 112 0 1 1 0 01-2 0zM936 607a1 1 0 112 0 1 1 0 01-2 0zM936 633a1 1 0 112 0 1 1 0 01-2 0zM936 659a1 1 0 112 0 1 1 0 01-2 0zM936 685a1 1 0 112 0 1 1 0 01-2 0zM936 711a1 1 0 112 0 1 1 0 01-2 0zM936 737a1 1 0 112 0 1 1 0 01-2 0zM936 763a1 1 0 112 0 1 1 0 01-2 0zM936 789a1 1 0 112 0 1 1 0 01-2 0zM936 815a1 1 0 112 0 1 1 0 01-2 0zM936 841a1 1 0 112 0 1 1 0 01-2 0zM936 867a1 1 0 112 0 1 1 0 01-2 0zM962-225a1 1 0 112 0 1 1 0 01-2 0zM962-199a1 1 0 112 0 1 1 0 01-2 0zM962-173a1 1 0 112 0 1 1 0 01-2 0zM962-147a1 1 0 112 0 1 1 0 01-2 0zM962-121a1 1 0 112 0 1 1 0 01-2 0zM962-95a1 1 0 112 0 1 1 0 01-2 0zM962-69a1 1 0 112 0 1 1 0 01-2 0zM962-43a1 1 0 112 0 1 1 0 01-2 0zM962-17a1 1 0 112 0 1 1 0 01-2 0zM962 9a1 1 0 112 0 1 1 0 01-2 0zM962 35a1 1 0 112 0 1 1 0 01-2 0zM962 61a1 1 0 112 0 1 1 0 01-2 0zM962 87a1 1 0 112 0 1 1 0 01-2 0zM962 113a1 1 0 112 0 1 1 0 01-2 0zM962 139a1 1 0 112 0 1 1 0 01-2 0zM962 165a1 1 0 112 0 1 1 0 01-2 0zM962 191a1 1 0 112 0 1 1 0 01-2 0zM962 217a1 1 0 112 0 1 1 0 01-2 0zM962 243a1 1 0 112 0 1 1 0 01-2 0zM962 269a1 1 0 112 0 1 1 0 01-2 0zM962 295a1 1 0 112 0 1 1 0 01-2 0zM962 321a1 1 0 112 0 1 1 0 01-2 0zM962 347a1 1 0 112 0 1 1 0 01-2 0zM962 373a1 1 0 112 0 1 1 0 01-2 0zM962 399a1 1 0 112 0 1 1 0 01-2 0zM962 425a1 1 0 112 0 1 1 0 01-2 0zM962 451a1 1 0 112 0 1 1 0 01-2 0zM962 477a1 1 0 112 0 1 1 0 01-2 0zM962 503a1 1 0 112 0 1 1 0 01-2 0zM962 529a1 1 0 112 0 1 1 0 01-2 0zM962 555a1 1 0 112 0 1 1 0 01-2 0zM962 581a1 1 0 112 0 1 1 0 01-2 0zM962 607a1 1 0 112 0 1 1 0 01-2 0zM962 633a1 1 0 112 0 1 1 0 01-2 0zM962 659a1 1 0 112 0 1 1 0 01-2 0zM962 685a1 1 0 112 0 1 1 0 01-2 0zM962 711a1 1 0 112 0 1 1 0 01-2 0zM962 737a1 1 0 112 0 1 1 0 01-2 0zM962 763a1 1 0 112 0 1 1 0 01-2 0zM962 789a1 1 0 112 0 1 1 0 01-2 0zM962 815a1 1 0 112 0 1 1 0 01-2 0zM962 841a1 1 0 112 0 1 1 0 01-2 0zM962 867a1 1 0 112 0 1 1 0 01-2 0zM988-225a1 1 0 112 0 1 1 0 01-2 0zM988-199a1 1 0 112 0 1 1 0 01-2 0zM988-173a1 1 0 112 0 1 1 0 01-2 0zM988-147a1 1 0 112 0 1 1 0 01-2 0zM988-121a1 1 0 112 0 1 1 0 01-2 0zM988-95a1 1 0 112 0 1 1 0 01-2 0zM988-69a1 1 0 112 0 1 1 0 01-2 0zM988-43a1 1 0 112 0 1 1 0 01-2 0zM988-17a1 1 0 112 0 1 1 0 01-2 0zM988 9a1 1 0 112 0 1 1 0 01-2 0zM988 35a1 1 0 112 0 1 1 0 01-2 0zM988 61a1 1 0 112 0 1 1 0 01-2 0zM988 87a1 1 0 112 0 1 1 0 01-2 0zM988 113a1 1 0 112 0 1 1 0 01-2 0zM988 139a1 1 0 112 0 1 1 0 01-2 0zM988 165a1 1 0 112 0 1 1 0 01-2 0zM988 191a1 1 0 112 0 1 1 0 01-2 0zM988 217a1 1 0 112 0 1 1 0 01-2 0zM988 243a1 1 0 112 0 1 1 0 01-2 0zM988 269a1 1 0 112 0 1 1 0 01-2 0zM988 295a1 1 0 112 0 1 1 0 01-2 0zM988 321a1 1 0 112 0 1 1 0 01-2 0zM988 347a1 1 0 112 0 1 1 0 01-2 0zM988 373a1 1 0 112 0 1 1 0 01-2 0zM988 399a1 1 0 112 0 1 1 0 01-2 0zM988 425a1 1 0 112 0 1 1 0 01-2 0zM988 451a1 1 0 112 0 1 1 0 01-2 0zM988 477a1 1 0 112 0 1 1 0 01-2 0zM988 503a1 1 0 112 0 1 1 0 01-2 0zM988 529a1 1 0 112 0 1 1 0 01-2 0zM988 555a1 1 0 112 0 1 1 0 01-2 0zM988 581a1 1 0 112 0 1 1 0 01-2 0zM988 607a1 1 0 112 0 1 1 0 01-2 0zM988 633a1 1 0 112 0 1 1 0 01-2 0zM988 659a1 1 0 112 0 1 1 0 01-2 0zM988 685a1 1 0 112 0 1 1 0 01-2 0zM988 711a1 1 0 112 0 1 1 0 01-2 0zM988 737a1 1 0 112 0 1 1 0 01-2 0zM988 763a1 1 0 112 0 1 1 0 01-2 0zM988 789a1 1 0 112 0 1 1 0 01-2 0zM988 815a1 1 0 112 0 1 1 0 01-2 0zM988 841a1 1 0 112 0 1 1 0 01-2 0zM988 867a1 1 0 112 0 1 1 0 01-2 0zM1014-225c0-.552.45-1 1-1s1 .448 1 1-.45 1-1 1-1-.448-1-1zM1014-199c0-.552.45-1 1-1s1 .448 1 1-.45 1-1 1-1-.448-1-1zM1014-173c0-.552.45-1 1-1s1 .448 1 1-.45 1-1 1-1-.448-1-1zM1014-147c0-.552.45-1 1-1s1 .448 1 1-.45 1-1 1-1-.448-1-1zM1014-121c0-.552.45-1 1-1s1 .448 1 1-.45 1-1 1-1-.448-1-1zM1014-95c0-.552.45-1 1-1s1 .448 1 1-.45 1-1 1-1-.448-1-1zM1014-69c0-.552.45-1 1-1s1 .448 1 1-.45 1-1 1-1-.448-1-1zM1014-43c0-.552.45-1 1-1s1 .448 1 1-.45 1-1 1-1-.448-1-1zM1014-17c0-.552.45-1 1-1s1 .448 1 1-.45 1-1 1-1-.448-1-1zM1014 9c0-.552.45-1 1-1s1 .448 1 1-.45 1-1 1-1-.448-1-1zM1014 35c0-.552.45-1 1-1s1 .448 1 1-.45 1-1 1-1-.448-1-1zM1014 61c0-.552.45-1 1-1s1 .448 1 1-.45 1-1 1-1-.448-1-1zM1014 87c0-.552.45-1 1-1s1 .448 1 1-.45 1-1 1-1-.448-1-1zM1014 113c0-.552.45-1 1-1s1 .448 1 1-.45 1-1 1-1-.448-1-1zM1014 139c0-.552.45-1 1-1s1 .448 1 1-.45 1-1 1-1-.448-1-1zM1014 165c0-.552.45-1 1-1s1 .448 1 1-.45 1-1 1-1-.448-1-1zM1014 191c0-.552.45-1 1-1s1 .448 1 1-.45 1-1 1-1-.448-1-1zM1014 217c0-.552.45-1 1-1s1 .448 1 1-.45 1-1 1-1-.448-1-1zM1014 243c0-.552.45-1 1-1s1 .448 1 1-.45 1-1 1-1-.448-1-1zM1014 269c0-.552.45-1 1-1s1 .448 1 1-.45 1-1 1-1-.448-1-1zM1014 295c0-.552.45-1 1-1s1 .448 1 1-.45 1-1 1-1-.448-1-1zM1014 321c0-.552.45-1 1-1s1 .448 1 1-.45 1-1 1-1-.448-1-1zM1014 347c0-.552.45-1 1-1s1 .448 1 1-.45 1-1 1-1-.448-1-1zM1014 373c0-.552.45-1 1-1s1 .448 1 1-.45 1-1 1-1-.448-1-1zM1014 399c0-.552.45-1 1-1s1 .448 1 1-.45 1-1 1-1-.448-1-1zM1014 425c0-.552.45-1 1-1s1 .448 1 1-.45 1-1 1-1-.448-1-1zM1014 451c0-.552.45-1 1-1s1 .448 1 1-.45 1-1 1-1-.448-1-1zM1014 477c0-.552.45-1 1-1s1 .448 1 1-.45 1-1 1-1-.448-1-1zM1014 503c0-.552.45-1 1-1s1 .448 1 1-.45 1-1 1-1-.448-1-1zM1014 529c0-.552.45-1 1-1s1 .448 1 1-.45 1-1 1-1-.448-1-1zM1014 555c0-.552.45-1 1-1s1 .448 1 1-.45 1-1 1-1-.448-1-1zM1014 581c0-.552.45-1 1-1s1 .448 1 1-.45 1-1 1-1-.448-1-1zM1014 607c0-.552.45-1 1-1s1 .448 1 1-.45 1-1 1-1-.448-1-1zM1014 633c0-.552.45-1 1-1s1 .448 1 1-.45 1-1 1-1-.448-1-1zM1014 659c0-.552.45-1 1-1s1 .448 1 1-.45 1-1 1-1-.448-1-1zM1014 685c0-.552.45-1 1-1s1 .448 1 1-.45 1-1 1-1-.448-1-1zM1014 711c0-.552.45-1 1-1s1 .448 1 1-.45 1-1 1-1-.448-1-1zM1014 737c0-.552.45-1 1-1s1 .448 1 1-.45 1-1 1-1-.448-1-1zM1014 763c0-.552.45-1 1-1s1 .448 1 1-.45 1-1 1-1-.448-1-1zM1014 789c0-.552.45-1 1-1s1 .448 1 1-.45 1-1 1-1-.448-1-1zM1014 815c0-.552.45-1 1-1s1 .448 1 1-.45 1-1 1-1-.448-1-1zM1014 841c0-.552.45-1 1-1s1 .448 1 1-.45 1-1 1-1-.448-1-1zM1014 867c0-.552.45-1 1-1s1 .448 1 1-.45 1-1 1-1-.448-1-1zM1040-225c0-.552.45-1 1-1s1 .448 1 1-.45 1-1 1-1-.448-1-1zM1040-199c0-.552.45-1 1-1s1 .448 1 1-.45 1-1 1-1-.448-1-1zM1040-173c0-.552.45-1 1-1s1 .448 1 1-.45 1-1 1-1-.448-1-1zM1040-147c0-.552.45-1 1-1s1 .448 1 1-.45 1-1 1-1-.448-1-1zM1040-121c0-.552.45-1 1-1s1 .448 1 1-.45 1-1 1-1-.448-1-1zM1040-95c0-.552.45-1 1-1s1 .448 1 1-.45 1-1 1-1-.448-1-1zM1040-69c0-.552.45-1 1-1s1 .448 1 1-.45 1-1 1-1-.448-1-1zM1040-43c0-.552.45-1 1-1s1 .448 1 1-.45 1-1 1-1-.448-1-1zM1040-17c0-.552.45-1 1-1s1 .448 1 1-.45 1-1 1-1-.448-1-1zM1040 9c0-.552.45-1 1-1s1 .448 1 1-.45 1-1 1-1-.448-1-1zM1040 35c0-.552.45-1 1-1s1 .448 1 1-.45 1-1 1-1-.448-1-1zM1040 61c0-.552.45-1 1-1s1 .448 1 1-.45 1-1 1-1-.448-1-1zM1040 87c0-.552.45-1 1-1s1 .448 1 1-.45 1-1 1-1-.448-1-1zM1040 113c0-.552.45-1 1-1s1 .448 1 1-.45 1-1 1-1-.448-1-1zM1040 139c0-.552.45-1 1-1s1 .448 1 1-.45 1-1 1-1-.448-1-1zM1040 165c0-.552.45-1 1-1s1 .448 1 1-.45 1-1 1-1-.448-1-1zM1040 191c0-.552.45-1 1-1s1 .448 1 1-.45 1-1 1-1-.448-1-1zM1040 217c0-.552.45-1 1-1s1 .448 1 1-.45 1-1 1-1-.448-1-1zM1040 243c0-.552.45-1 1-1s1 .448 1 1-.45 1-1 1-1-.448-1-1zM1040 269c0-.552.45-1 1-1s1 .448 1 1-.45 1-1 1-1-.448-1-1zM1040 295c0-.552.45-1 1-1s1 .448 1 1-.45 1-1 1-1-.448-1-1zM1040 321c0-.552.45-1 1-1s1 .448 1 1-.45 1-1 1-1-.448-1-1zM1040 347c0-.552.45-1 1-1s1 .448 1 1-.45 1-1 1-1-.448-1-1zM1040 373c0-.552.45-1 1-1s1 .448 1 1-.45 1-1 1-1-.448-1-1zM1040 399c0-.552.45-1 1-1s1 .448 1 1-.45 1-1 1-1-.448-1-1zM1040 425c0-.552.45-1 1-1s1 .448 1 1-.45 1-1 1-1-.448-1-1zM1040 451c0-.552.45-1 1-1s1 .448 1 1-.45 1-1 1-1-.448-1-1zM1040 477c0-.552.45-1 1-1s1 .448 1 1-.45 1-1 1-1-.448-1-1zM1040 503c0-.552.45-1 1-1s1 .448 1 1-.45 1-1 1-1-.448-1-1zM1040 529c0-.552.45-1 1-1s1 .448 1 1-.45 1-1 1-1-.448-1-1zM1040 555c0-.552.45-1 1-1s1 .448 1 1-.45 1-1 1-1-.448-1-1zM1040 581c0-.552.45-1 1-1s1 .448 1 1-.45 1-1 1-1-.448-1-1zM1040 607c0-.552.45-1 1-1s1 .448 1 1-.45 1-1 1-1-.448-1-1zM1040 633c0-.552.45-1 1-1s1 .448 1 1-.45 1-1 1-1-.448-1-1zM1040 659c0-.552.45-1 1-1s1 .448 1 1-.45 1-1 1-1-.448-1-1zM1040 685c0-.552.45-1 1-1s1 .448 1 1-.45 1-1 1-1-.448-1-1zM1040 711c0-.552.45-1 1-1s1 .448 1 1-.45 1-1 1-1-.448-1-1zM1040 737c0-.552.45-1 1-1s1 .448 1 1-.45 1-1 1-1-.448-1-1zM1040 763c0-.552.45-1 1-1s1 .448 1 1-.45 1-1 1-1-.448-1-1zM1040 789c0-.552.45-1 1-1s1 .448 1 1-.45 1-1 1-1-.448-1-1zM1040 815c0-.552.45-1 1-1s1 .448 1 1-.45 1-1 1-1-.448-1-1zM1040 841c0-.552.45-1 1-1s1 .448 1 1-.45 1-1 1-1-.448-1-1zM1040 867c0-.552.45-1 1-1s1 .448 1 1-.45 1-1 1-1-.448-1-1zM1066-225c0-.552.45-1 1-1s1 .448 1 1-.45 1-1 1-1-.448-1-1zM1066-199c0-.552.45-1 1-1s1 .448 1 1-.45 1-1 1-1-.448-1-1zM1066-173c0-.552.45-1 1-1s1 .448 1 1-.45 1-1 1-1-.448-1-1zM1066-147c0-.552.45-1 1-1s1 .448 1 1-.45 1-1 1-1-.448-1-1zM1066-121c0-.552.45-1 1-1s1 .448 1 1-.45 1-1 1-1-.448-1-1zM1066-95c0-.552.45-1 1-1s1 .448 1 1-.45 1-1 1-1-.448-1-1zM1066-69c0-.552.45-1 1-1s1 .448 1 1-.45 1-1 1-1-.448-1-1zM1066-43c0-.552.45-1 1-1s1 .448 1 1-.45 1-1 1-1-.448-1-1zM1066-17c0-.552.45-1 1-1s1 .448 1 1-.45 1-1 1-1-.448-1-1zM1066 9c0-.552.45-1 1-1s1 .448 1 1-.45 1-1 1-1-.448-1-1zM1066 35c0-.552.45-1 1-1s1 .448 1 1-.45 1-1 1-1-.448-1-1zM1066 61c0-.552.45-1 1-1s1 .448 1 1-.45 1-1 1-1-.448-1-1zM1066 87c0-.552.45-1 1-1s1 .448 1 1-.45 1-1 1-1-.448-1-1zM1066 113c0-.552.45-1 1-1s1 .448 1 1-.45 1-1 1-1-.448-1-1zM1066 139c0-.552.45-1 1-1s1 .448 1 1-.45 1-1 1-1-.448-1-1zM1066 165c0-.552.45-1 1-1s1 .448 1 1-.45 1-1 1-1-.448-1-1zM1066 191c0-.552.45-1 1-1s1 .448 1 1-.45 1-1 1-1-.448-1-1zM1066 217c0-.552.45-1 1-1s1 .448 1 1-.45 1-1 1-1-.448-1-1zM1066 243c0-.552.45-1 1-1s1 .448 1 1-.45 1-1 1-1-.448-1-1zM1066 269c0-.552.45-1 1-1s1 .448 1 1-.45 1-1 1-1-.448-1-1zM1066 295c0-.552.45-1 1-1s1 .448 1 1-.45 1-1 1-1-.448-1-1zM1066 321c0-.552.45-1 1-1s1 .448 1 1-.45 1-1 1-1-.448-1-1zM1066 347c0-.552.45-1 1-1s1 .448 1 1-.45 1-1 1-1-.448-1-1zM1066 373c0-.552.45-1 1-1s1 .448 1 1-.45 1-1 1-1-.448-1-1zM1066 399c0-.552.45-1 1-1s1 .448 1 1-.45 1-1 1-1-.448-1-1zM1066 425c0-.552.45-1 1-1s1 .448 1 1-.45 1-1 1-1-.448-1-1zM1066 451c0-.552.45-1 1-1s1 .448 1 1-.45 1-1 1-1-.448-1-1zM1066 477c0-.552.45-1 1-1s1 .448 1 1-.45 1-1 1-1-.448-1-1zM1066 503c0-.552.45-1 1-1s1 .448 1 1-.45 1-1 1-1-.448-1-1zM1066 529c0-.552.45-1 1-1s1 .448 1 1-.45 1-1 1-1-.448-1-1zM1066 555c0-.552.45-1 1-1s1 .448 1 1-.45 1-1 1-1-.448-1-1zM1066 581c0-.552.45-1 1-1s1 .448 1 1-.45 1-1 1-1-.448-1-1zM1066 607c0-.552.45-1 1-1s1 .448 1 1-.45 1-1 1-1-.448-1-1zM1066 633c0-.552.45-1 1-1s1 .448 1 1-.45 1-1 1-1-.448-1-1zM1066 659c0-.552.45-1 1-1s1 .448 1 1-.45 1-1 1-1-.448-1-1zM1066 685c0-.552.45-1 1-1s1 .448 1 1-.45 1-1 1-1-.448-1-1zM1066 711c0-.552.45-1 1-1s1 .448 1 1-.45 1-1 1-1-.448-1-1zM1066 737c0-.552.45-1 1-1s1 .448 1 1-.45 1-1 1-1-.448-1-1zM1066 763c0-.552.45-1 1-1s1 .448 1 1-.45 1-1 1-1-.448-1-1zM1066 789c0-.552.45-1 1-1s1 .448 1 1-.45 1-1 1-1-.448-1-1zM1066 815c0-.552.45-1 1-1s1 .448 1 1-.45 1-1 1-1-.448-1-1zM1066 841c0-.552.45-1 1-1s1 .448 1 1-.45 1-1 1-1-.448-1-1zM1066 867c0-.552.45-1 1-1s1 .448 1 1-.45 1-1 1-1-.448-1-1zM1092-225c0-.552.45-1 1-1s1 .448 1 1-.45 1-1 1-1-.448-1-1zM1092-199c0-.552.45-1 1-1s1 .448 1 1-.45 1-1 1-1-.448-1-1zM1092-173c0-.552.45-1 1-1s1 .448 1 1-.45 1-1 1-1-.448-1-1zM1092-147c0-.552.45-1 1-1s1 .448 1 1-.45 1-1 1-1-.448-1-1zM1092-121c0-.552.45-1 1-1s1 .448 1 1-.45 1-1 1-1-.448-1-1zM1092-95c0-.552.45-1 1-1s1 .448 1 1-.45 1-1 1-1-.448-1-1zM1092-69c0-.552.45-1 1-1s1 .448 1 1-.45 1-1 1-1-.448-1-1zM1092-43c0-.552.45-1 1-1s1 .448 1 1-.45 1-1 1-1-.448-1-1zM1092-17c0-.552.45-1 1-1s1 .448 1 1-.45 1-1 1-1-.448-1-1zM1092 9c0-.552.45-1 1-1s1 .448 1 1-.45 1-1 1-1-.448-1-1zM1092 35c0-.552.45-1 1-1s1 .448 1 1-.45 1-1 1-1-.448-1-1zM1092 61c0-.552.45-1 1-1s1 .448 1 1-.45 1-1 1-1-.448-1-1zM1092 87c0-.552.45-1 1-1s1 .448 1 1-.45 1-1 1-1-.448-1-1zM1092 113c0-.552.45-1 1-1s1 .448 1 1-.45 1-1 1-1-.448-1-1zM1092 139c0-.552.45-1 1-1s1 .448 1 1-.45 1-1 1-1-.448-1-1zM1092 165c0-.552.45-1 1-1s1 .448 1 1-.45 1-1 1-1-.448-1-1zM1092 191c0-.552.45-1 1-1s1 .448 1 1-.45 1-1 1-1-.448-1-1zM1092 217c0-.552.45-1 1-1s1 .448 1 1-.45 1-1 1-1-.448-1-1zM1092 243c0-.552.45-1 1-1s1 .448 1 1-.45 1-1 1-1-.448-1-1zM1092 269c0-.552.45-1 1-1s1 .448 1 1-.45 1-1 1-1-.448-1-1zM1092 295c0-.552.45-1 1-1s1 .448 1 1-.45 1-1 1-1-.448-1-1zM1092 321c0-.552.45-1 1-1s1 .448 1 1-.45 1-1 1-1-.448-1-1zM1092 347c0-.552.45-1 1-1s1 .448 1 1-.45 1-1 1-1-.448-1-1zM1092 373c0-.552.45-1 1-1s1 .448 1 1-.45 1-1 1-1-.448-1-1zM1092 399c0-.552.45-1 1-1s1 .448 1 1-.45 1-1 1-1-.448-1-1zM1092 425c0-.552.45-1 1-1s1 .448 1 1-.45 1-1 1-1-.448-1-1zM1092 451c0-.552.45-1 1-1s1 .448 1 1-.45 1-1 1-1-.448-1-1zM1092 477c0-.552.45-1 1-1s1 .448 1 1-.45 1-1 1-1-.448-1-1zM1092 503c0-.552.45-1 1-1s1 .448 1 1-.45 1-1 1-1-.448-1-1zM1092 529c0-.552.45-1 1-1s1 .448 1 1-.45 1-1 1-1-.448-1-1zM1092 555c0-.552.45-1 1-1s1 .448 1 1-.45 1-1 1-1-.448-1-1zM1092 581c0-.552.45-1 1-1s1 .448 1 1-.45 1-1 1-1-.448-1-1zM1092 607c0-.552.45-1 1-1s1 .448 1 1-.45 1-1 1-1-.448-1-1zM1092 633c0-.552.45-1 1-1s1 .448 1 1-.45 1-1 1-1-.448-1-1zM1092 659c0-.552.45-1 1-1s1 .448 1 1-.45 1-1 1-1-.448-1-1zM1092 685c0-.552.45-1 1-1s1 .448 1 1-.45 1-1 1-1-.448-1-1zM1092 711c0-.552.45-1 1-1s1 .448 1 1-.45 1-1 1-1-.448-1-1zM1092 737c0-.552.45-1 1-1s1 .448 1 1-.45 1-1 1-1-.448-1-1zM1092 763c0-.552.45-1 1-1s1 .448 1 1-.45 1-1 1-1-.448-1-1zM1092 789c0-.552.45-1 1-1s1 .448 1 1-.45 1-1 1-1-.448-1-1zM1092 815c0-.552.45-1 1-1s1 .448 1 1-.45 1-1 1-1-.448-1-1zM1092 841c0-.552.45-1 1-1s1 .448 1 1-.45 1-1 1-1-.448-1-1zM1092 867c0-.552.45-1 1-1s1 .448 1 1-.45 1-1 1-1-.448-1-1zM1118-225c0-.552.45-1 1-1s1 .448 1 1-.45 1-1 1-1-.448-1-1zM1118-199c0-.552.45-1 1-1s1 .448 1 1-.45 1-1 1-1-.448-1-1zM1118-173c0-.552.45-1 1-1s1 .448 1 1-.45 1-1 1-1-.448-1-1zM1118-147c0-.552.45-1 1-1s1 .448 1 1-.45 1-1 1-1-.448-1-1zM1118-121c0-.552.45-1 1-1s1 .448 1 1-.45 1-1 1-1-.448-1-1zM1118-95c0-.552.45-1 1-1s1 .448 1 1-.45 1-1 1-1-.448-1-1zM1118-69c0-.552.45-1 1-1s1 .448 1 1-.45 1-1 1-1-.448-1-1zM1118-43c0-.552.45-1 1-1s1 .448 1 1-.45 1-1 1-1-.448-1-1zM1118-17c0-.552.45-1 1-1s1 .448 1 1-.45 1-1 1-1-.448-1-1zM1118 9c0-.552.45-1 1-1s1 .448 1 1-.45 1-1 1-1-.448-1-1zM1118 35c0-.552.45-1 1-1s1 .448 1 1-.45 1-1 1-1-.448-1-1zM1118 61c0-.552.45-1 1-1s1 .448 1 1-.45 1-1 1-1-.448-1-1zM1118 87c0-.552.45-1 1-1s1 .448 1 1-.45 1-1 1-1-.448-1-1zM1118 113c0-.552.45-1 1-1s1 .448 1 1-.45 1-1 1-1-.448-1-1zM1118 139c0-.552.45-1 1-1s1 .448 1 1-.45 1-1 1-1-.448-1-1zM1118 165c0-.552.45-1 1-1s1 .448 1 1-.45 1-1 1-1-.448-1-1zM1118 191c0-.552.45-1 1-1s1 .448 1 1-.45 1-1 1-1-.448-1-1zM1118 217c0-.552.45-1 1-1s1 .448 1 1-.45 1-1 1-1-.448-1-1zM1118 243c0-.552.45-1 1-1s1 .448 1 1-.45 1-1 1-1-.448-1-1zM1118 269c0-.552.45-1 1-1s1 .448 1 1-.45 1-1 1-1-.448-1-1zM1118 295c0-.552.45-1 1-1s1 .448 1 1-.45 1-1 1-1-.448-1-1zM1118 321c0-.552.45-1 1-1s1 .448 1 1-.45 1-1 1-1-.448-1-1zM1118 347c0-.552.45-1 1-1s1 .448 1 1-.45 1-1 1-1-.448-1-1zM1118 373c0-.552.45-1 1-1s1 .448 1 1-.45 1-1 1-1-.448-1-1zM1118 399c0-.552.45-1 1-1s1 .448 1 1-.45 1-1 1-1-.448-1-1zM1118 425c0-.552.45-1 1-1s1 .448 1 1-.45 1-1 1-1-.448-1-1zM1118 451c0-.552.45-1 1-1s1 .448 1 1-.45 1-1 1-1-.448-1-1zM1118 477c0-.552.45-1 1-1s1 .448 1 1-.45 1-1 1-1-.448-1-1zM1118 503c0-.552.45-1 1-1s1 .448 1 1-.45 1-1 1-1-.448-1-1zM1118 529c0-.552.45-1 1-1s1 .448 1 1-.45 1-1 1-1-.448-1-1zM1118 555c0-.552.45-1 1-1s1 .448 1 1-.45 1-1 1-1-.448-1-1zM1118 581c0-.552.45-1 1-1s1 .448 1 1-.45 1-1 1-1-.448-1-1zM1118 607c0-.552.45-1 1-1s1 .448 1 1-.45 1-1 1-1-.448-1-1zM1118 633c0-.552.45-1 1-1s1 .448 1 1-.45 1-1 1-1-.448-1-1zM1118 659c0-.552.45-1 1-1s1 .448 1 1-.45 1-1 1-1-.448-1-1zM1118 685c0-.552.45-1 1-1s1 .448 1 1-.45 1-1 1-1-.448-1-1zM1118 711c0-.552.45-1 1-1s1 .448 1 1-.45 1-1 1-1-.448-1-1zM1118 737c0-.552.45-1 1-1s1 .448 1 1-.45 1-1 1-1-.448-1-1zM1118 763c0-.552.45-1 1-1s1 .448 1 1-.45 1-1 1-1-.448-1-1zM1118 789c0-.552.45-1 1-1s1 .448 1 1-.45 1-1 1-1-.448-1-1zM1118 815c0-.552.45-1 1-1s1 .448 1 1-.45 1-1 1-1-.448-1-1zM1118 841c0-.552.45-1 1-1s1 .448 1 1-.45 1-1 1-1-.448-1-1zM1118 867c0-.552.45-1 1-1s1 .448 1 1-.45 1-1 1-1-.448-1-1zM1144-225c0-.552.45-1 1-1s1 .448 1 1-.45 1-1 1-1-.448-1-1zM1144-199c0-.552.45-1 1-1s1 .448 1 1-.45 1-1 1-1-.448-1-1zM1144-173c0-.552.45-1 1-1s1 .448 1 1-.45 1-1 1-1-.448-1-1zM1144-147c0-.552.45-1 1-1s1 .448 1 1-.45 1-1 1-1-.448-1-1zM1144-121c0-.552.45-1 1-1s1 .448 1 1-.45 1-1 1-1-.448-1-1zM1144-95c0-.552.45-1 1-1s1 .448 1 1-.45 1-1 1-1-.448-1-1zM1144-69c0-.552.45-1 1-1s1 .448 1 1-.45 1-1 1-1-.448-1-1zM1144-43c0-.552.45-1 1-1s1 .448 1 1-.45 1-1 1-1-.448-1-1zM1144-17c0-.552.45-1 1-1s1 .448 1 1-.45 1-1 1-1-.448-1-1zM1144 9c0-.552.45-1 1-1s1 .448 1 1-.45 1-1 1-1-.448-1-1zM1144 35c0-.552.45-1 1-1s1 .448 1 1-.45 1-1 1-1-.448-1-1zM1144 61c0-.552.45-1 1-1s1 .448 1 1-.45 1-1 1-1-.448-1-1zM1144 87c0-.552.45-1 1-1s1 .448 1 1-.45 1-1 1-1-.448-1-1zM1144 113c0-.552.45-1 1-1s1 .448 1 1-.45 1-1 1-1-.448-1-1zM1144 139c0-.552.45-1 1-1s1 .448 1 1-.45 1-1 1-1-.448-1-1zM1144 165c0-.552.45-1 1-1s1 .448 1 1-.45 1-1 1-1-.448-1-1zM1144 191c0-.552.45-1 1-1s1 .448 1 1-.45 1-1 1-1-.448-1-1zM1144 217c0-.552.45-1 1-1s1 .448 1 1-.45 1-1 1-1-.448-1-1zM1144 243c0-.552.45-1 1-1s1 .448 1 1-.45 1-1 1-1-.448-1-1zM1144 269c0-.552.45-1 1-1s1 .448 1 1-.45 1-1 1-1-.448-1-1zM1144 295c0-.552.45-1 1-1s1 .448 1 1-.45 1-1 1-1-.448-1-1zM1144 321c0-.552.45-1 1-1s1 .448 1 1-.45 1-1 1-1-.448-1-1zM1144 347c0-.552.45-1 1-1s1 .448 1 1-.45 1-1 1-1-.448-1-1zM1144 373c0-.552.45-1 1-1s1 .448 1 1-.45 1-1 1-1-.448-1-1zM1144 399c0-.552.45-1 1-1s1 .448 1 1-.45 1-1 1-1-.448-1-1zM1144 425c0-.552.45-1 1-1s1 .448 1 1-.45 1-1 1-1-.448-1-1zM1144 451c0-.552.45-1 1-1s1 .448 1 1-.45 1-1 1-1-.448-1-1zM1144 477c0-.552.45-1 1-1s1 .448 1 1-.45 1-1 1-1-.448-1-1zM1144 503c0-.552.45-1 1-1s1 .448 1 1-.45 1-1 1-1-.448-1-1zM1144 529c0-.552.45-1 1-1s1 .448 1 1-.45 1-1 1-1-.448-1-1zM1144 555c0-.552.45-1 1-1s1 .448 1 1-.45 1-1 1-1-.448-1-1zM1144 581c0-.552.45-1 1-1s1 .448 1 1-.45 1-1 1-1-.448-1-1zM1144 607c0-.552.45-1 1-1s1 .448 1 1-.45 1-1 1-1-.448-1-1zM1144 633c0-.552.45-1 1-1s1 .448 1 1-.45 1-1 1-1-.448-1-1zM1144 659c0-.552.45-1 1-1s1 .448 1 1-.45 1-1 1-1-.448-1-1zM1144 685c0-.552.45-1 1-1s1 .448 1 1-.45 1-1 1-1-.448-1-1zM1144 711c0-.552.45-1 1-1s1 .448 1 1-.45 1-1 1-1-.448-1-1zM1144 737c0-.552.45-1 1-1s1 .448 1 1-.45 1-1 1-1-.448-1-1zM1144 763c0-.552.45-1 1-1s1 .448 1 1-.45 1-1 1-1-.448-1-1zM1144 789c0-.552.45-1 1-1s1 .448 1 1-.45 1-1 1-1-.448-1-1zM1144 815c0-.552.45-1 1-1s1 .448 1 1-.45 1-1 1-1-.448-1-1zM1144 841c0-.552.45-1 1-1s1 .448 1 1-.45 1-1 1-1-.448-1-1zM1144 867c0-.552.45-1 1-1s1 .448 1 1-.45 1-1 1-1-.448-1-1zM1170-225c0-.552.45-1 1-1s1 .448 1 1-.45 1-1 1-1-.448-1-1zM1170-199c0-.552.45-1 1-1s1 .448 1 1-.45 1-1 1-1-.448-1-1zM1170-173c0-.552.45-1 1-1s1 .448 1 1-.45 1-1 1-1-.448-1-1zM1170-147c0-.552.45-1 1-1s1 .448 1 1-.45 1-1 1-1-.448-1-1zM1170-121c0-.552.45-1 1-1s1 .448 1 1-.45 1-1 1-1-.448-1-1zM1170-95c0-.552.45-1 1-1s1 .448 1 1-.45 1-1 1-1-.448-1-1zM1170-69c0-.552.45-1 1-1s1 .448 1 1-.45 1-1 1-1-.448-1-1zM1170-43c0-.552.45-1 1-1s1 .448 1 1-.45 1-1 1-1-.448-1-1zM1170-17c0-.552.45-1 1-1s1 .448 1 1-.45 1-1 1-1-.448-1-1zM1170 9c0-.552.45-1 1-1s1 .448 1 1-.45 1-1 1-1-.448-1-1zM1170 35c0-.552.45-1 1-1s1 .448 1 1-.45 1-1 1-1-.448-1-1zM1170 61c0-.552.45-1 1-1s1 .448 1 1-.45 1-1 1-1-.448-1-1zM1170 87c0-.552.45-1 1-1s1 .448 1 1-.45 1-1 1-1-.448-1-1zM1170 113c0-.552.45-1 1-1s1 .448 1 1-.45 1-1 1-1-.448-1-1zM1170 139c0-.552.45-1 1-1s1 .448 1 1-.45 1-1 1-1-.448-1-1zM1170 165c0-.552.45-1 1-1s1 .448 1 1-.45 1-1 1-1-.448-1-1zM1170 191c0-.552.45-1 1-1s1 .448 1 1-.45 1-1 1-1-.448-1-1zM1170 217c0-.552.45-1 1-1s1 .448 1 1-.45 1-1 1-1-.448-1-1zM1170 243c0-.552.45-1 1-1s1 .448 1 1-.45 1-1 1-1-.448-1-1zM1170 269c0-.552.45-1 1-1s1 .448 1 1-.45 1-1 1-1-.448-1-1zM1170 295c0-.552.45-1 1-1s1 .448 1 1-.45 1-1 1-1-.448-1-1zM1170 321c0-.552.45-1 1-1s1 .448 1 1-.45 1-1 1-1-.448-1-1zM1170 347c0-.552.45-1 1-1s1 .448 1 1-.45 1-1 1-1-.448-1-1zM1170 373c0-.552.45-1 1-1s1 .448 1 1-.45 1-1 1-1-.448-1-1zM1170 399c0-.552.45-1 1-1s1 .448 1 1-.45 1-1 1-1-.448-1-1zM1170 425c0-.552.45-1 1-1s1 .448 1 1-.45 1-1 1-1-.448-1-1zM1170 451c0-.552.45-1 1-1s1 .448 1 1-.45 1-1 1-1-.448-1-1zM1170 477c0-.552.45-1 1-1s1 .448 1 1-.45 1-1 1-1-.448-1-1zM1170 503c0-.552.45-1 1-1s1 .448 1 1-.45 1-1 1-1-.448-1-1zM1170 529c0-.552.45-1 1-1s1 .448 1 1-.45 1-1 1-1-.448-1-1zM1170 555c0-.552.45-1 1-1s1 .448 1 1-.45 1-1 1-1-.448-1-1zM1170 581c0-.552.45-1 1-1s1 .448 1 1-.45 1-1 1-1-.448-1-1zM1170 607c0-.552.45-1 1-1s1 .448 1 1-.45 1-1 1-1-.448-1-1zM1170 633c0-.552.45-1 1-1s1 .448 1 1-.45 1-1 1-1-.448-1-1zM1170 659c0-.552.45-1 1-1s1 .448 1 1-.45 1-1 1-1-.448-1-1zM1170 685c0-.552.45-1 1-1s1 .448 1 1-.45 1-1 1-1-.448-1-1zM1170 711c0-.552.45-1 1-1s1 .448 1 1-.45 1-1 1-1-.448-1-1zM1170 737c0-.552.45-1 1-1s1 .448 1 1-.45 1-1 1-1-.448-1-1zM1170 763c0-.552.45-1 1-1s1 .448 1 1-.45 1-1 1-1-.448-1-1zM1170 789c0-.552.45-1 1-1s1 .448 1 1-.45 1-1 1-1-.448-1-1zM1170 815c0-.552.45-1 1-1s1 .448 1 1-.45 1-1 1-1-.448-1-1zM1170 841c0-.552.45-1 1-1s1 .448 1 1-.45 1-1 1-1-.448-1-1zM1170 867c0-.552.45-1 1-1s1 .448 1 1-.45 1-1 1-1-.448-1-1zM1196-225c0-.552.45-1 1-1s1 .448 1 1-.45 1-1 1-1-.448-1-1zM1196-199c0-.552.45-1 1-1s1 .448 1 1-.45 1-1 1-1-.448-1-1zM1196-173c0-.552.45-1 1-1s1 .448 1 1-.45 1-1 1-1-.448-1-1zM1196-147c0-.552.45-1 1-1s1 .448 1 1-.45 1-1 1-1-.448-1-1zM1196-121c0-.552.45-1 1-1s1 .448 1 1-.45 1-1 1-1-.448-1-1zM1196-95c0-.552.45-1 1-1s1 .448 1 1-.45 1-1 1-1-.448-1-1zM1196-69c0-.552.45-1 1-1s1 .448 1 1-.45 1-1 1-1-.448-1-1zM1196-43c0-.552.45-1 1-1s1 .448 1 1-.45 1-1 1-1-.448-1-1zM1196-17c0-.552.45-1 1-1s1 .448 1 1-.45 1-1 1-1-.448-1-1zM1196 9c0-.552.45-1 1-1s1 .448 1 1-.45 1-1 1-1-.448-1-1zM1196 35c0-.552.45-1 1-1s1 .448 1 1-.45 1-1 1-1-.448-1-1zM1196 61c0-.552.45-1 1-1s1 .448 1 1-.45 1-1 1-1-.448-1-1zM1196 87c0-.552.45-1 1-1s1 .448 1 1-.45 1-1 1-1-.448-1-1zM1196 113c0-.552.45-1 1-1s1 .448 1 1-.45 1-1 1-1-.448-1-1zM1196 139c0-.552.45-1 1-1s1 .448 1 1-.45 1-1 1-1-.448-1-1zM1196 165c0-.552.45-1 1-1s1 .448 1 1-.45 1-1 1-1-.448-1-1zM1196 191c0-.552.45-1 1-1s1 .448 1 1-.45 1-1 1-1-.448-1-1zM1196 217c0-.552.45-1 1-1s1 .448 1 1-.45 1-1 1-1-.448-1-1zM1196 243c0-.552.45-1 1-1s1 .448 1 1-.45 1-1 1-1-.448-1-1zM1196 269c0-.552.45-1 1-1s1 .448 1 1-.45 1-1 1-1-.448-1-1zM1196 295c0-.552.45-1 1-1s1 .448 1 1-.45 1-1 1-1-.448-1-1zM1196 321c0-.552.45-1 1-1s1 .448 1 1-.45 1-1 1-1-.448-1-1zM1196 347c0-.552.45-1 1-1s1 .448 1 1-.45 1-1 1-1-.448-1-1zM1196 373c0-.552.45-1 1-1s1 .448 1 1-.45 1-1 1-1-.448-1-1zM1196 399c0-.552.45-1 1-1s1 .448 1 1-.45 1-1 1-1-.448-1-1zM1196 425c0-.552.45-1 1-1s1 .448 1 1-.45 1-1 1-1-.448-1-1zM1196 451c0-.552.45-1 1-1s1 .448 1 1-.45 1-1 1-1-.448-1-1zM1196 477c0-.552.45-1 1-1s1 .448 1 1-.45 1-1 1-1-.448-1-1zM1196 503c0-.552.45-1 1-1s1 .448 1 1-.45 1-1 1-1-.448-1-1zM1196 529c0-.552.45-1 1-1s1 .448 1 1-.45 1-1 1-1-.448-1-1zM1196 555c0-.552.45-1 1-1s1 .448 1 1-.45 1-1 1-1-.448-1-1zM1196 581c0-.552.45-1 1-1s1 .448 1 1-.45 1-1 1-1-.448-1-1zM1196 607c0-.552.45-1 1-1s1 .448 1 1-.45 1-1 1-1-.448-1-1zM1196 633c0-.552.45-1 1-1s1 .448 1 1-.45 1-1 1-1-.448-1-1zM1196 659c0-.552.45-1 1-1s1 .448 1 1-.45 1-1 1-1-.448-1-1zM1196 685c0-.552.45-1 1-1s1 .448 1 1-.45 1-1 1-1-.448-1-1zM1196 711c0-.552.45-1 1-1s1 .448 1 1-.45 1-1 1-1-.448-1-1zM1196 737c0-.552.45-1 1-1s1 .448 1 1-.45 1-1 1-1-.448-1-1zM1196 763c0-.552.45-1 1-1s1 .448 1 1-.45 1-1 1-1-.448-1-1zM1196 789c0-.552.45-1 1-1s1 .448 1 1-.45 1-1 1-1-.448-1-1zM1196 815c0-.552.45-1 1-1s1 .448 1 1-.45 1-1 1-1-.448-1-1zM1196 841c0-.552.45-1 1-1s1 .448 1 1-.45 1-1 1-1-.448-1-1zM1196 867c0-.552.45-1 1-1s1 .448 1 1-.45 1-1 1-1-.448-1-1zM1222-225c0-.552.45-1 1-1s1 .448 1 1-.45 1-1 1-1-.448-1-1zM1222-199c0-.552.45-1 1-1s1 .448 1 1-.45 1-1 1-1-.448-1-1zM1222-173c0-.552.45-1 1-1s1 .448 1 1-.45 1-1 1-1-.448-1-1zM1222-147c0-.552.45-1 1-1s1 .448 1 1-.45 1-1 1-1-.448-1-1zM1222-121c0-.552.45-1 1-1s1 .448 1 1-.45 1-1 1-1-.448-1-1zM1222-95c0-.552.45-1 1-1s1 .448 1 1-.45 1-1 1-1-.448-1-1zM1222-69c0-.552.45-1 1-1s1 .448 1 1-.45 1-1 1-1-.448-1-1zM1222-43c0-.552.45-1 1-1s1 .448 1 1-.45 1-1 1-1-.448-1-1zM1222-17c0-.552.45-1 1-1s1 .448 1 1-.45 1-1 1-1-.448-1-1zM1222 9c0-.552.45-1 1-1s1 .448 1 1-.45 1-1 1-1-.448-1-1zM1222 35c0-.552.45-1 1-1s1 .448 1 1-.45 1-1 1-1-.448-1-1zM1222 61c0-.552.45-1 1-1s1 .448 1 1-.45 1-1 1-1-.448-1-1zM1222 87c0-.552.45-1 1-1s1 .448 1 1-.45 1-1 1-1-.448-1-1zM1222 113c0-.552.45-1 1-1s1 .448 1 1-.45 1-1 1-1-.448-1-1zM1222 139c0-.552.45-1 1-1s1 .448 1 1-.45 1-1 1-1-.448-1-1zM1222 165c0-.552.45-1 1-1s1 .448 1 1-.45 1-1 1-1-.448-1-1zM1222 191c0-.552.45-1 1-1s1 .448 1 1-.45 1-1 1-1-.448-1-1zM1222 217c0-.552.45-1 1-1s1 .448 1 1-.45 1-1 1-1-.448-1-1zM1222 243c0-.552.45-1 1-1s1 .448 1 1-.45 1-1 1-1-.448-1-1zM1222 269c0-.552.45-1 1-1s1 .448 1 1-.45 1-1 1-1-.448-1-1zM1222 295c0-.552.45-1 1-1s1 .448 1 1-.45 1-1 1-1-.448-1-1zM1222 321c0-.552.45-1 1-1s1 .448 1 1-.45 1-1 1-1-.448-1-1zM1222 347c0-.552.45-1 1-1s1 .448 1 1-.45 1-1 1-1-.448-1-1zM1222 373c0-.552.45-1 1-1s1 .448 1 1-.45 1-1 1-1-.448-1-1zM1222 399c0-.552.45-1 1-1s1 .448 1 1-.45 1-1 1-1-.448-1-1zM1222 425c0-.552.45-1 1-1s1 .448 1 1-.45 1-1 1-1-.448-1-1zM1222 451c0-.552.45-1 1-1s1 .448 1 1-.45 1-1 1-1-.448-1-1zM1222 477c0-.552.45-1 1-1s1 .448 1 1-.45 1-1 1-1-.448-1-1zM1222 503c0-.552.45-1 1-1s1 .448 1 1-.45 1-1 1-1-.448-1-1zM1222 529c0-.552.45-1 1-1s1 .448 1 1-.45 1-1 1-1-.448-1-1zM1222 555c0-.552.45-1 1-1s1 .448 1 1-.45 1-1 1-1-.448-1-1zM1222 581c0-.552.45-1 1-1s1 .448 1 1-.45 1-1 1-1-.448-1-1zM1222 607c0-.552.45-1 1-1s1 .448 1 1-.45 1-1 1-1-.448-1-1zM1222 633c0-.552.45-1 1-1s1 .448 1 1-.45 1-1 1-1-.448-1-1zM1222 659c0-.552.45-1 1-1s1 .448 1 1-.45 1-1 1-1-.448-1-1zM1222 685c0-.552.45-1 1-1s1 .448 1 1-.45 1-1 1-1-.448-1-1zM1222 711c0-.552.45-1 1-1s1 .448 1 1-.45 1-1 1-1-.448-1-1zM1222 737c0-.552.45-1 1-1s1 .448 1 1-.45 1-1 1-1-.448-1-1zM1222 763c0-.552.45-1 1-1s1 .448 1 1-.45 1-1 1-1-.448-1-1zM1222 789c0-.552.45-1 1-1s1 .448 1 1-.45 1-1 1-1-.448-1-1zM1222 815c0-.552.45-1 1-1s1 .448 1 1-.45 1-1 1-1-.448-1-1zM1222 841c0-.552.45-1 1-1s1 .448 1 1-.45 1-1 1-1-.448-1-1zM1222 867c0-.552.45-1 1-1s1 .448 1 1-.45 1-1 1-1-.448-1-1z"/></g><defs><clipPath id="clip0_125_13899"><path fill="#fff" d="M0 0h1224v642H0z"/></clipPath></defs></svg>